G04 Created by GerbView by Software Companions*
%FSLAX24Y24*%
%MOIN*%
%ADD10C,0.0010*%
%ADD11C,0.0640*%
%ADD12C,0.1496*%
%ADD13C,0.0590*%
%ADD14C,0.0275*%
%ADD15C,0.0118*%
%ADD16C,0.0196*%
%ADD17C,0.0393*%
%ADD18C,0.1181*%
%ADD19C,0.0787*%
%LNEXPORT*%
D02*
D10*
G36*
X28437Y30054D02*
X27692Y30799D01*
X26637D01*
X25892Y30054D01*
Y28999D01*
X26637Y28254D01*
X27692D01*
X28437Y28999D01*
Y30054D01*
G37*
G36*
X5602Y2495D02*
X4857Y3240D01*
X3802D01*
X3057Y2495D01*
Y1440D01*
X3802Y695D01*
X4857D01*
X5602Y1440D01*
Y2495D01*
G37*
D11*
X7586Y1181D03*
D10*
D11*
X6586Y1181D03*
D10*
G36*
X29270Y20548D02*
X29057Y20335D01*
Y20034D01*
X29270Y19821D01*
X29571D01*
X29784Y20034D01*
Y20335D01*
X29571Y20548D01*
X29270D01*
G37*
G36*
X29270Y21548D02*
X29057Y21335D01*
Y21034D01*
X29270Y20821D01*
X29571D01*
X29784Y21034D01*
Y21335D01*
X29571Y21548D01*
X29270D01*
G37*
G36*
X29270Y18548D02*
X29057Y18335D01*
Y18034D01*
X29270Y17821D01*
X29571D01*
X29784Y18034D01*
Y18335D01*
X29571Y18548D01*
X29270D01*
G37*
G36*
X29270Y19548D02*
X29057Y19335D01*
Y19034D01*
X29270Y18821D01*
X29571D01*
X29784Y19034D01*
Y19335D01*
X29571Y19548D01*
X29270D01*
G37*
G36*
X29270Y13461D02*
X29057Y13248D01*
Y12947D01*
X29270Y12734D01*
X29571D01*
X29784Y12947D01*
Y13248D01*
X29571Y13461D01*
X29270D01*
G37*
G36*
X29270Y12461D02*
X29057Y12248D01*
Y11947D01*
X29270Y11734D01*
X29571D01*
X29784Y11947D01*
Y12248D01*
X29571Y12461D01*
X29270D01*
G37*
G36*
X30270Y13461D02*
X30057Y13248D01*
Y12947D01*
X30270Y12734D01*
X30571D01*
X30784Y12947D01*
Y13248D01*
X30571Y13461D01*
X30270D01*
G37*
G36*
X30270Y11461D02*
X30057Y11248D01*
Y10947D01*
X30270Y10734D01*
X30571D01*
X30784Y10947D01*
Y11248D01*
X30571Y11461D01*
X30270D01*
G37*
G36*
X29270Y11461D02*
X29057Y11248D01*
Y10947D01*
X29270Y10734D01*
X29571D01*
X29784Y10947D01*
Y11248D01*
X29571Y11461D01*
X29270D01*
G37*
G36*
X29270Y14461D02*
X29057Y14248D01*
Y13947D01*
X29270Y13734D01*
X29571D01*
X29784Y13947D01*
Y14248D01*
X29571Y14461D01*
X29270D01*
G37*
G36*
X30270Y14461D02*
X30057Y14248D01*
Y13947D01*
X30270Y13734D01*
X30571D01*
X30784Y13947D01*
Y14248D01*
X30571Y14461D01*
X30270D01*
G37*
G36*
X30270Y12461D02*
X30057Y12248D01*
Y11947D01*
X30270Y11734D01*
X30571D01*
X30784Y11947D01*
Y12248D01*
X30571Y12461D01*
X30270D01*
G37*
G36*
X23295Y978D02*
X23025Y1248D01*
X22642D01*
X22372Y978D01*
Y595D01*
X22642Y325D01*
X23025D01*
X23295Y595D01*
Y978D01*
G37*
G36*
X2224Y11159D02*
X2437Y11372D01*
Y11673D01*
X2224Y11886D01*
X1923D01*
X1710Y11673D01*
Y11372D01*
X1923Y11159D01*
X2224D01*
G37*
G36*
X2224Y9159D02*
X2437Y9372D01*
Y9673D01*
X2224Y9886D01*
X1923D01*
X1710Y9673D01*
Y9372D01*
X1923Y9159D01*
X2224D01*
G37*
G36*
X2224Y10159D02*
X2437Y10372D01*
Y10673D01*
X2224Y10886D01*
X1923D01*
X1710Y10673D01*
Y10372D01*
X1923Y10159D01*
X2224D01*
G37*
G36*
X2224Y13159D02*
X2437Y13372D01*
Y13673D01*
X2224Y13886D01*
X1923D01*
X1710Y13673D01*
Y13372D01*
X1923Y13159D01*
X2224D01*
G37*
G36*
X2224Y12159D02*
X2437Y12372D01*
Y12673D01*
X2224Y12886D01*
X1923D01*
X1710Y12673D01*
Y12372D01*
X1923Y12159D01*
X2224D01*
G37*
G36*
X2224Y8159D02*
X2437Y8372D01*
Y8673D01*
X2224Y8886D01*
X1923D01*
X1710Y8673D01*
Y8372D01*
X1923Y8159D01*
X2224D01*
G37*
D11*
X23909Y30314D03*
D10*
D11*
X24909Y30314D03*
D10*
D11*
X23909Y1181D03*
D10*
D11*
X24909Y1181D03*
D10*
D11*
X7586Y30314D03*
D10*
D11*
X6586Y30314D03*
D10*
G36*
X22114Y978D02*
X21844Y1248D01*
X21461D01*
X21191Y978D01*
Y595D01*
X21461Y325D01*
X21844D01*
X22114Y595D01*
Y978D01*
G37*
G36*
X13461Y2224D02*
X13248Y2437D01*
X12947D01*
X12734Y2224D01*
Y1923D01*
X12947Y1710D01*
X13248D01*
X13461Y1923D01*
Y2224D01*
G37*
G36*
X12461Y2224D02*
X12248Y2437D01*
X11947D01*
X11734Y2224D01*
Y1923D01*
X11947Y1710D01*
X12248D01*
X12461Y1923D01*
Y2224D01*
G37*
G36*
X13461Y1224D02*
X13248Y1437D01*
X12947D01*
X12734Y1224D01*
Y923D01*
X12947Y710D01*
X13248D01*
X13461Y923D01*
Y1224D01*
G37*
G36*
X11461Y1224D02*
X11248Y1437D01*
X10947D01*
X10734Y1224D01*
Y923D01*
X10947Y710D01*
X11248D01*
X11461Y923D01*
Y1224D01*
G37*
G36*
X11461Y2224D02*
X11248Y2437D01*
X10947D01*
X10734Y2224D01*
Y1923D01*
X10947Y1710D01*
X11248D01*
X11461Y1923D01*
Y2224D01*
G37*
G36*
X14461Y2224D02*
X14248Y2437D01*
X13947D01*
X13734Y2224D01*
Y1923D01*
X13947Y1710D01*
X14248D01*
X14461Y1923D01*
Y2224D01*
G37*
G36*
X14461Y1224D02*
X14248Y1437D01*
X13947D01*
X13734Y1224D01*
Y923D01*
X13947Y710D01*
X14248D01*
X14461Y923D01*
Y1224D01*
G37*
G36*
X12461Y1224D02*
X12248Y1437D01*
X11947D01*
X11734Y1224D01*
Y923D01*
X11947Y710D01*
X12248D01*
X12461Y923D01*
Y1224D01*
G37*
G36*
X28437Y2495D02*
X27692Y3240D01*
X26637D01*
X25892Y2495D01*
Y1440D01*
X26637Y695D01*
X27692D01*
X28437Y1440D01*
Y2495D01*
G37*
G36*
X12734Y29663D02*
X12947Y29450D01*
X13248D01*
X13461Y29663D01*
Y29964D01*
X13248Y30177D01*
X12947D01*
X12734Y29964D01*
Y29663D01*
G37*
G36*
X11734Y29663D02*
X11947Y29450D01*
X12248D01*
X12461Y29663D01*
Y29964D01*
X12248Y30177D01*
X11947D01*
X11734Y29964D01*
Y29663D01*
G37*
G36*
X12734Y30663D02*
X12947Y30450D01*
X13248D01*
X13461Y30663D01*
Y30964D01*
X13248Y31177D01*
X12947D01*
X12734Y30964D01*
Y30663D01*
G37*
G36*
X10734Y30663D02*
X10947Y30450D01*
X11248D01*
X11461Y30663D01*
Y30964D01*
X11248Y31177D01*
X10947D01*
X10734Y30964D01*
Y30663D01*
G37*
G36*
X10734Y29663D02*
X10947Y29450D01*
X11248D01*
X11461Y29663D01*
Y29964D01*
X11248Y30177D01*
X10947D01*
X10734Y29964D01*
Y29663D01*
G37*
G36*
X13734Y29663D02*
X13947Y29450D01*
X14248D01*
X14461Y29663D01*
Y29964D01*
X14248Y30177D01*
X13947D01*
X13734Y29964D01*
Y29663D01*
G37*
G36*
X13734Y30663D02*
X13947Y30450D01*
X14248D01*
X14461Y30663D01*
Y30964D01*
X14248Y31177D01*
X13947D01*
X13734Y30964D01*
Y30663D01*
G37*
G36*
X11734Y30663D02*
X11947Y30450D01*
X12248D01*
X12461Y30663D01*
Y30964D01*
X12248Y31177D01*
X11947D01*
X11734Y30964D01*
Y30663D01*
G37*
G36*
X2224Y16458D02*
X2437Y16671D01*
Y16972D01*
X2224Y17185D01*
X1923D01*
X1710Y16972D01*
Y16671D01*
X1923Y16458D01*
X2224D01*
G37*
G36*
X2224Y17458D02*
X2437Y17671D01*
Y17972D01*
X2224Y18185D01*
X1923D01*
X1710Y17972D01*
Y17671D01*
X1923Y17458D01*
X2224D01*
G37*
G36*
X1224Y16458D02*
X1437Y16671D01*
Y16972D01*
X1224Y17185D01*
X923D01*
X710Y16972D01*
Y16671D01*
X923Y16458D01*
X1224D01*
G37*
G36*
X1224Y18458D02*
X1437Y18671D01*
Y18972D01*
X1224Y19185D01*
X923D01*
X710Y18972D01*
Y18671D01*
X923Y18458D01*
X1224D01*
G37*
G36*
X2224Y18458D02*
X2437Y18671D01*
Y18972D01*
X2224Y19185D01*
X1923D01*
X1710Y18972D01*
Y18671D01*
X1923Y18458D01*
X2224D01*
G37*
G36*
X2224Y15458D02*
X2437Y15671D01*
Y15972D01*
X2224Y16185D01*
X1923D01*
X1710Y15972D01*
Y15671D01*
X1923Y15458D01*
X2224D01*
G37*
G36*
X1224Y15458D02*
X1437Y15671D01*
Y15972D01*
X1224Y16185D01*
X923D01*
X710Y15972D01*
Y15671D01*
X923Y15458D01*
X1224D01*
G37*
G36*
X1224Y17458D02*
X1437Y17671D01*
Y17972D01*
X1224Y18185D01*
X923D01*
X710Y17972D01*
Y17671D01*
X923Y17458D01*
X1224D01*
G37*
G36*
X5602Y30054D02*
X4857Y30799D01*
X3802D01*
X3057Y30054D01*
Y28999D01*
X3802Y28254D01*
X4857D01*
X5602Y28999D01*
Y30054D01*
G37*
D12*
X15740Y3897D03*
D10*
D13*
X17618Y4964D03*
D10*
D13*
X18602Y5751D03*
D10*
D12*
X20480Y3897D03*
D10*
D13*
X17618Y5751D03*
D10*
D13*
X18602Y4964D03*
D10*
D14*
X18188Y20157D03*
D10*
D14*
X17755Y25590D03*
D10*
D14*
X18622Y24763D03*
D10*
D14*
X18622Y25708D03*
D10*
D14*
X17755Y18700D03*
D10*
D14*
X16023Y16850D03*
D10*
D14*
X14212Y16850D03*
D10*
D14*
X19448Y16338D03*
D10*
D14*
X20511Y16338D03*
D10*
D14*
X17480Y22283D03*
D10*
D14*
X16653Y19803D03*
D10*
D14*
X9251Y21889D03*
D10*
D14*
X8464Y23188D03*
D10*
D14*
X8661Y22007D03*
D10*
D14*
X11929Y22795D03*
D10*
D14*
X10078Y23976D03*
D10*
D14*
X9645Y23661D03*
D10*
D14*
X12874Y23267D03*
D10*
D14*
X8267Y19173D03*
D10*
D14*
X8267Y15826D03*
D10*
D14*
X12952Y19173D03*
D10*
D14*
X15000Y15551D03*
D10*
D14*
X16023Y19527D03*
D10*
D14*
X20511Y17007D03*
D10*
D14*
X29133Y25708D03*
D10*
D14*
X29921Y26692D03*
D10*
D14*
X29921Y25984D03*
D10*
D14*
X29133Y7086D03*
D10*
D14*
X29921Y4803D03*
D10*
D14*
X30078Y6732D03*
D10*
D14*
X26259Y21259D03*
D10*
D14*
X27047Y20275D03*
D10*
D14*
X26653Y19094D03*
D10*
D14*
X1377Y5000D03*
D10*
D14*
X1968Y5039D03*
D10*
D14*
X2322Y6653D03*
D10*
D14*
X1574Y25944D03*
D10*
D14*
X1968Y26574D03*
D10*
D14*
X2362Y25669D03*
D10*
D14*
X7440Y21220D03*
D10*
D14*
X7440Y20433D03*
D10*
D14*
X7755Y20826D03*
D10*
D14*
X10826Y20433D03*
D10*
D14*
X11850Y25157D03*
D10*
D14*
X10590Y21220D03*
D10*
D14*
X8267Y6653D03*
D10*
D14*
X7992Y7047D03*
D10*
D14*
X7992Y7677D03*
D10*
D14*
X19606Y7677D03*
D10*
D14*
X19606Y7047D03*
D10*
D14*
X19173Y6653D03*
D10*
D14*
X27716Y7047D03*
D10*
D14*
X10905Y22440D03*
D10*
D14*
X10905Y24330D03*
D10*
D14*
X12165Y22362D03*
D10*
D14*
X18740Y27440D03*
D10*
D14*
X12086Y20433D03*
D10*
D14*
X15000Y14960D03*
D10*
D14*
X15000Y5787D03*
D10*
D14*
X20393Y6299D03*
D10*
D14*
X6692Y6141D03*
D10*
D14*
X6692Y8149D03*
D10*
D14*
X9488Y16338D03*
D10*
D14*
X12677Y20472D03*
D10*
D14*
X12519Y16417D03*
D10*
D14*
X11417Y18385D03*
D10*
D14*
X13464Y18385D03*
D10*
D14*
X13464Y20511D03*
D10*
D14*
X17283Y16062D03*
D10*
D14*
X29921Y9094D03*
D10*
D14*
X30433Y8582D03*
D10*
D14*
X30905Y9094D03*
D10*
D14*
X7637Y15354D03*
D10*
D14*
X11377Y25708D03*
D10*
D14*
X6968Y15393D03*
D10*
D14*
X10984Y26102D03*
D10*
D14*
X6456Y15472D03*
D10*
D14*
X6299Y21653D03*
D10*
D14*
X7755Y21653D03*
D10*
D14*
X10393Y21929D03*
D10*
D14*
X21929Y3937D03*
D10*
D14*
X21456Y3307D03*
D10*
D14*
X21692Y5078D03*
D10*
D14*
X21614Y4527D03*
D10*
D14*
X18110Y2401D03*
D10*
D14*
X17716Y1968D03*
D10*
D14*
X18503Y1968D03*
D10*
D14*
X18976Y2401D03*
D10*
D14*
X17244Y2401D03*
D10*
D14*
X21692Y5708D03*
D10*
D14*
X21181Y6181D03*
D10*
D14*
X14724Y27283D03*
D10*
D14*
X14055Y26417D03*
D10*
D14*
X7598Y8070D03*
D10*
D14*
X14488Y4606D03*
D10*
D14*
X10551Y25196D03*
D10*
D14*
X10551Y27401D03*
D10*
D14*
X12952Y22362D03*
D10*
D14*
X18661Y26850D03*
D10*
D14*
X17952Y29133D03*
D10*
D14*
X9094Y1574D03*
D10*
D14*
X8582Y1062D03*
D10*
D14*
X5078Y12637D03*
D10*
D14*
X5393Y12637D03*
D10*
D14*
X6535Y27283D03*
D10*
D14*
X748Y20826D03*
D10*
D14*
X1102Y21181D03*
D10*
D14*
X1456Y20826D03*
D10*
D14*
X3228Y22401D03*
D10*
D14*
X2007Y24803D03*
D10*
D14*
X1220Y22834D03*
D10*
D14*
X25590Y9803D03*
D10*
D14*
X25118Y9803D03*
D10*
D14*
X24645Y9803D03*
D10*
D14*
X9763Y9212D03*
D10*
D14*
X9763Y8858D03*
D10*
D14*
X9763Y9566D03*
D10*
D14*
X5039Y19842D03*
D10*
D14*
X5393Y19842D03*
D10*
D14*
X5748Y19842D03*
D10*
D14*
X3582Y26181D03*
D10*
D14*
X3582Y26496D03*
D10*
D14*
X27362Y25551D03*
D10*
D14*
X27362Y25866D03*
D10*
D14*
X27362Y26181D03*
D10*
D14*
X27913Y5236D03*
D10*
D14*
X27913Y4921D03*
D10*
D14*
X27913Y4606D03*
D10*
D14*
X3582Y25866D03*
D10*
D14*
X4330Y6181D03*
D10*
D14*
X4094Y5944D03*
D10*
D14*
X3858Y5708D03*
D10*
D14*
X22047Y6220D03*
D10*
D14*
X22283Y5984D03*
D10*
D14*
X22519Y5748D03*
D10*
D14*
X20196Y11417D03*
D10*
D14*
X20511Y11417D03*
D10*
D14*
X18661Y14094D03*
D10*
D14*
X18110Y14606D03*
D10*
D14*
X9251Y26023D03*
D10*
D14*
X9448Y26220D03*
D10*
D14*
X9645Y26417D03*
D10*
D14*
X25314Y18110D03*
D10*
D14*
X25629Y18110D03*
D10*
D15*
X18622Y24763D02*
X18622Y25708D01*
X14212Y16850D02*
X16023Y16850D01*
X17480Y22283D02*
X17755Y22559D01*
X17755Y22559D02*
X17755Y25590D01*
X16653Y19803D02*
X17755Y18700D01*
X8661Y22007D02*
X8779Y22125D01*
X8779Y22125D02*
X10078Y23425D01*
X10078Y23976D02*
X10078Y23425D01*
X8464Y23188D02*
X8937Y23661D01*
X8937Y23661D02*
X9645Y23661D01*
X12874Y23267D02*
X12401Y23267D01*
X12401Y23267D02*
X11929Y22795D01*
X8267Y15826D02*
X8267Y19173D01*
X12952Y19173D02*
X12952Y17598D01*
X12952Y17598D02*
X15000Y15551D01*
X16023Y19527D02*
X16023Y19842D01*
X20511Y16338D02*
X19448Y16338D01*
X20511Y17007D02*
X20511Y18385D01*
X20511Y18385D02*
X18385Y20511D01*
X18385Y20511D02*
X16692Y20511D01*
X16692Y20511D02*
X16692Y20511D01*
X16692Y20511D02*
X16023Y19842D01*
X30078Y6732D02*
X28976Y6732D01*
X28976Y6732D02*
X27519Y8188D01*
X27519Y8188D02*
X26653Y9055D01*
X26653Y9055D02*
X26653Y23228D01*
X29921Y4803D02*
X29921Y5393D01*
X27559Y7755D02*
X26259Y9055D01*
X26259Y9055D02*
X26259Y14409D01*
X29133Y25708D02*
X26653Y23228D01*
X29921Y25984D02*
X29921Y25984D01*
X29921Y25984D02*
X27047Y23110D01*
X27047Y23110D02*
X27047Y9173D01*
X27047Y9173D02*
X29133Y7086D01*
X1968Y26574D02*
X4488Y24055D01*
X4488Y24055D02*
X4488Y8661D01*
X4488Y8661D02*
X4488Y7519D01*
X4488Y7519D02*
X1968Y5039D01*
X2362Y25669D02*
X4173Y23858D01*
X4173Y23858D02*
X4173Y23267D01*
X4173Y23267D02*
X4173Y7755D01*
X4173Y7755D02*
X1377Y5000D01*
X2322Y6653D02*
X3897Y8188D01*
X3897Y8188D02*
X3897Y8188D01*
X3897Y8188D02*
X3858Y23740D01*
X3858Y23740D02*
X1535Y25984D01*
X1535Y25984D02*
X1574Y25905D01*
X1574Y25905D02*
X1574Y25944D01*
X10826Y20433D02*
X7440Y20433D01*
X10590Y21220D02*
X7440Y21220D01*
X7755Y20826D02*
X10905Y20826D01*
X10905Y20826D02*
X11417Y21338D01*
X11417Y21338D02*
X11417Y24724D01*
X11417Y24724D02*
X11850Y25157D01*
X19606Y7677D02*
X7992Y7677D01*
X19606Y7047D02*
X7992Y7047D01*
X19173Y6653D02*
X8267Y6653D01*
X27716Y7047D02*
X27992Y7322D01*
X29921Y5393D02*
X27992Y7322D01*
X27992Y7322D02*
X27559Y7755D01*
X10905Y24330D02*
X10905Y22440D01*
X12086Y20433D02*
X12086Y17874D01*
X12086Y17874D02*
X15000Y14960D01*
X15000Y5787D02*
X15511Y6299D01*
X15511Y6299D02*
X18661Y6299D01*
X20393Y6299D02*
X18661Y6299D01*
X6692Y8149D02*
X6692Y6141D01*
X9488Y16338D02*
X9488Y18543D01*
X9488Y18543D02*
X11732Y20787D01*
X11732Y20787D02*
X12362Y20787D01*
X12362Y20787D02*
X12677Y20472D01*
X12519Y16417D02*
X11417Y17519D01*
X11417Y17519D02*
X11417Y18385D01*
X13464Y20511D02*
X13464Y18385D01*
X18188Y20157D02*
X18188Y16968D01*
X18188Y16968D02*
X17283Y16062D01*
X31062Y14212D02*
X31062Y14330D01*
X31062Y14330D02*
X30866Y14527D01*
X30866Y14527D02*
X30669Y14724D01*
X30314Y14724D02*
X29173Y14724D01*
X29173Y14724D02*
X28937Y14488D01*
X28937Y14488D02*
X28779Y14330D01*
X28779Y14330D02*
X28779Y11299D01*
X28779Y11299D02*
X28779Y10866D01*
X28779Y10866D02*
X29015Y10629D01*
X29015Y10629D02*
X29173Y10472D01*
X29173Y10472D02*
X30196Y10472D01*
X30196Y10472D02*
X30669Y10472D01*
X30669Y10472D02*
X31023Y10826D01*
X31023Y10826D02*
X31062Y10866D01*
X31062Y10866D02*
X31062Y14133D01*
X31062Y13098D02*
X31062Y14133D01*
X31062Y14133D02*
X31062Y14212D01*
X31062Y14133D02*
X31062Y14094D01*
X31259Y10629D02*
X31259Y30078D01*
X31259Y30078D02*
X31259Y31259D01*
X31259Y31259D02*
X23110Y31259D01*
X23110Y31259D02*
X14724Y31259D01*
X14724Y31259D02*
X14724Y29842D01*
X14724Y29842D02*
X14724Y29566D01*
X14724Y29566D02*
X14448Y29291D01*
X14448Y29291D02*
X14330Y29173D01*
X14330Y29173D02*
X11377Y29173D01*
X11377Y29173D02*
X10866Y29173D01*
X10866Y29173D02*
X10590Y29448D01*
X10590Y29448D02*
X10472Y29566D01*
X10472Y29566D02*
X10472Y30000D01*
X10472Y30000D02*
X10472Y31259D01*
X10472Y31259D02*
X9803Y31259D01*
X9803Y31259D02*
X236Y31259D01*
X236Y31259D02*
X236Y29212D01*
X236Y29212D02*
X236Y236D01*
X236Y236D02*
X6929Y236D01*
X6929Y236D02*
X20905Y236D01*
X20905Y236D02*
X20905Y1023D01*
X20905Y1023D02*
X20905Y1062D01*
X20905Y1062D02*
X21338Y1496D01*
X21338Y1496D02*
X21574Y1732D01*
X21574Y1732D02*
X22795Y1732D01*
X22795Y1732D02*
X22795Y1732D01*
X22795Y1732D02*
X24055Y1732D01*
X24055Y1732D02*
X25157Y1732D01*
X25157Y1732D02*
X25472Y1417D01*
X25472Y1417D02*
X25472Y236D01*
X25472Y236D02*
X28425Y236D01*
X28425Y236D02*
X31259Y236D01*
X31259Y236D02*
X31259Y1732D01*
X31259Y9094D02*
X31259Y1732D01*
X31259Y9094D02*
X30905Y9094D01*
X31259Y9094D02*
X31259Y10629D01*
X14724Y2007D02*
X14724Y2322D01*
X14724Y2322D02*
X14409Y2637D01*
X14409Y2637D02*
X14330Y2716D01*
X14330Y2716D02*
X11220Y2716D01*
X11220Y2716D02*
X10866Y2716D01*
X10866Y2716D02*
X10472Y2322D01*
X10472Y2322D02*
X10472Y2322D01*
X10472Y2322D02*
X10472Y1062D01*
X10472Y1062D02*
X10472Y826D01*
X10472Y826D02*
X10748Y551D01*
X10748Y551D02*
X10866Y433D01*
X14330Y433D02*
X14685Y787D01*
X14685Y787D02*
X14724Y826D01*
X13098Y1074D02*
X13070Y1074D01*
X13070Y433D02*
X13149Y433D01*
X10866Y433D02*
X13070Y433D01*
X13070Y433D02*
X13149Y433D01*
X24055Y1732D02*
X24921Y1732D01*
X24921Y1732D02*
X24921Y1181D01*
X25629Y1181D02*
X24921Y1181D01*
X10472Y826D02*
X8149Y826D01*
X8149Y826D02*
X8149Y1220D01*
X7795Y1732D02*
X6377Y1732D01*
X6377Y1732D02*
X6141Y1496D01*
X6141Y1496D02*
X6023Y1377D01*
X6023Y1377D02*
X6023Y1062D01*
X6023Y1062D02*
X6023Y984D01*
X6023Y984D02*
X6259Y748D01*
X6259Y748D02*
X6377Y629D01*
X7007Y629D02*
X7795Y629D01*
X7795Y629D02*
X8031Y866D01*
X8031Y866D02*
X8149Y984D01*
X8149Y984D02*
X8149Y1377D01*
X8149Y1377D02*
X8149Y1220D01*
X8149Y1377D02*
X7795Y1732D01*
X6377Y1732D02*
X6574Y1732D01*
X6377Y629D02*
X6574Y629D01*
X6574Y629D02*
X7007Y629D01*
X6023Y1062D02*
X6023Y1181D01*
X6023Y1181D02*
X6574Y1181D01*
X6574Y1732D02*
X6574Y1181D01*
X6574Y1181D02*
X6574Y629D01*
X236Y236D02*
X236Y7874D01*
X2047Y7874D02*
X2322Y7874D01*
X2322Y7874D02*
X2598Y8149D01*
X2598Y8149D02*
X2716Y8267D01*
X2716Y8267D02*
X2716Y8700D01*
X2716Y13779D02*
X2401Y14094D01*
X2401Y14094D02*
X2322Y14173D01*
X2322Y14173D02*
X1850Y14173D01*
X1850Y14173D02*
X1653Y13976D01*
X1653Y13976D02*
X1417Y13740D01*
X1417Y13740D02*
X1417Y11535D01*
X1417Y11535D02*
X1417Y8307D01*
X1417Y8307D02*
X1850Y7874D01*
X236Y7874D02*
X1850Y7874D01*
X1850Y7874D02*
X2047Y7874D01*
X2716Y11535D02*
X1417Y11535D01*
X2716Y8700D02*
X2716Y11535D01*
X2716Y11535D02*
X2716Y13779D01*
X7637Y15354D02*
X7637Y19330D01*
X7637Y19330D02*
X7362Y19606D01*
X7362Y19606D02*
X7047Y19921D01*
X7047Y19921D02*
X7047Y21496D01*
X7047Y21496D02*
X7047Y22480D01*
X7047Y22480D02*
X8740Y24173D01*
X8740Y24173D02*
X10275Y25708D01*
X10275Y25708D02*
X11377Y25708D01*
X6968Y15393D02*
X6968Y19488D01*
X6968Y19488D02*
X6692Y19763D01*
X6692Y19763D02*
X6692Y22637D01*
X6692Y22637D02*
X10157Y26102D01*
X11023Y26102D02*
X10157Y26102D01*
X6456Y15472D02*
X6456Y19566D01*
X6456Y19566D02*
X6299Y19724D01*
X6299Y21653D02*
X6299Y19724D01*
X7755Y21653D02*
X8385Y21653D01*
X8385Y21653D02*
X8503Y21535D01*
X8503Y21535D02*
X10000Y21535D01*
X10000Y21535D02*
X10393Y21929D01*
X236Y7874D02*
X236Y15196D01*
X1141Y15196D02*
X2322Y15196D01*
X2322Y15196D02*
X2559Y15433D01*
X2559Y15433D02*
X2716Y15590D01*
X2716Y15590D02*
X2716Y16062D01*
X2716Y16062D02*
X2716Y19055D01*
X2716Y19055D02*
X2440Y19330D01*
X2440Y19330D02*
X2322Y19448D01*
X2322Y19448D02*
X944Y19448D01*
X944Y19448D02*
X826Y19448D01*
X826Y19448D02*
X472Y19094D01*
X472Y19094D02*
X433Y19055D01*
X433Y15590D02*
X826Y15196D01*
X433Y19055D02*
X433Y16850D01*
X9803Y31259D02*
X8149Y31259D01*
X8149Y30314D02*
X8149Y30118D01*
X8149Y30118D02*
X7874Y29842D01*
X7874Y29842D02*
X7795Y29763D01*
X7795Y29763D02*
X7244Y29763D01*
X6377Y29763D02*
X6062Y30078D01*
X6062Y30078D02*
X6023Y30118D01*
X6023Y30118D02*
X6023Y30433D01*
X6023Y30433D02*
X6023Y30511D01*
X6023Y30511D02*
X6377Y30866D01*
X6377Y30866D02*
X6456Y30866D01*
X6456Y30866D02*
X7677Y30866D01*
X7677Y30866D02*
X7795Y30866D01*
X7795Y30866D02*
X8149Y30511D01*
X8149Y31259D02*
X8149Y30511D01*
X8149Y30511D02*
X8149Y30314D01*
X6456Y30866D02*
X6574Y30866D01*
X7244Y29763D02*
X6574Y29763D01*
X6574Y29763D02*
X6377Y29763D01*
X6023Y30118D02*
X6023Y30314D01*
X6023Y30314D02*
X6574Y30314D01*
X6574Y30866D02*
X6574Y30314D01*
X6574Y30314D02*
X6574Y29763D01*
X10472Y31259D02*
X10472Y30826D01*
X31259Y30078D02*
X31259Y21811D01*
X29409Y21811D02*
X29173Y21811D01*
X29173Y21811D02*
X28897Y21535D01*
X28897Y21535D02*
X28779Y21417D01*
X28779Y21417D02*
X28779Y18188D01*
X28779Y18188D02*
X28779Y17952D01*
X28779Y17952D02*
X29094Y17637D01*
X29094Y17637D02*
X29173Y17559D01*
X29173Y17559D02*
X29527Y17559D01*
X29527Y17559D02*
X29685Y17559D01*
X29685Y17559D02*
X29921Y17795D01*
X29921Y17795D02*
X30039Y17913D01*
X30039Y17913D02*
X30039Y18543D01*
X30039Y18543D02*
X30039Y21456D01*
X30039Y21456D02*
X29685Y21811D01*
X29685Y21811D02*
X29409Y21811D01*
X21614Y4527D02*
X21456Y4527D01*
X21456Y3740D02*
X21456Y3503D01*
X21456Y3503D02*
X20944Y2992D01*
X20944Y2992D02*
X20866Y2913D01*
X20866Y2913D02*
X20196Y2913D01*
X20196Y2913D02*
X15354Y2913D01*
X15354Y2913D02*
X14960Y3307D01*
X14960Y3307D02*
X14724Y3543D01*
X14724Y3543D02*
X14724Y4173D01*
X14724Y4173D02*
X14724Y4960D01*
X14724Y4960D02*
X13503Y6181D01*
X7598Y6181D02*
X6535Y5118D01*
X6535Y5118D02*
X2598Y5118D01*
X2598Y5118D02*
X2283Y4803D01*
X2283Y4803D02*
X2125Y4645D01*
X2125Y4645D02*
X1338Y4645D01*
X1338Y4645D02*
X1220Y4645D01*
X1220Y4645D02*
X1023Y4842D01*
X1023Y4842D02*
X984Y4881D01*
X984Y4881D02*
X984Y5157D01*
X984Y5157D02*
X1259Y5433D01*
X1259Y5433D02*
X1929Y6102D01*
X1929Y6102D02*
X1929Y6850D01*
X1929Y6850D02*
X3543Y8464D01*
X3543Y8464D02*
X3543Y23543D01*
X3543Y23543D02*
X1535Y25551D01*
X1535Y25551D02*
X1456Y25551D01*
X1456Y25551D02*
X1181Y25826D01*
X1181Y25826D02*
X1181Y25984D01*
X1181Y25984D02*
X1181Y26338D01*
X1181Y26338D02*
X1889Y27047D01*
X1889Y27047D02*
X15157Y27007D01*
X15157Y27007D02*
X17007Y28818D01*
X17007Y28818D02*
X19566Y28818D01*
X19566Y28818D02*
X20944Y27440D01*
X20944Y27440D02*
X21732Y26653D01*
X21732Y26653D02*
X28622Y26692D01*
X28622Y26692D02*
X28937Y26692D01*
X28937Y26692D02*
X29724Y27480D01*
X29724Y27480D02*
X30157Y27480D01*
X30157Y27480D02*
X30393Y27244D01*
X30393Y27244D02*
X30393Y25905D01*
X30393Y25905D02*
X29606Y25118D01*
X29606Y25118D02*
X27440Y22952D01*
X27440Y22952D02*
X27440Y20039D01*
X27440Y20039D02*
X27440Y9881D01*
X30236Y7086D02*
X30472Y6850D01*
X30472Y6850D02*
X30472Y6220D01*
X30472Y6220D02*
X30314Y6062D01*
X30314Y6062D02*
X30314Y4409D01*
X30314Y4409D02*
X30314Y4291D01*
X30314Y4291D02*
X30039Y4015D01*
X30039Y4015D02*
X23228Y4015D01*
X23228Y4015D02*
X21968Y5275D01*
X21968Y5275D02*
X21456Y5275D01*
X21456Y5275D02*
X21456Y4251D01*
X21456Y4527D02*
X21456Y4251D01*
X21456Y4251D02*
X21456Y3740D01*
X23110Y31259D02*
X23346Y31259D01*
X23346Y30433D02*
X23346Y30118D01*
X23346Y30118D02*
X23503Y29960D01*
X23503Y29960D02*
X23700Y29763D01*
X23700Y29763D02*
X24842Y29763D01*
X24842Y29763D02*
X25118Y29763D01*
X25118Y29763D02*
X25354Y30000D01*
X25354Y30000D02*
X25472Y30118D01*
X25472Y30118D02*
X25472Y30354D01*
X25472Y30354D02*
X25472Y30511D01*
X25472Y30511D02*
X25236Y30748D01*
X25236Y30748D02*
X25118Y30866D01*
X23818Y30866D02*
X23700Y30866D01*
X23700Y30866D02*
X23346Y30511D01*
X23346Y31259D02*
X23346Y30511D01*
X23346Y30511D02*
X23346Y30433D01*
X21692Y5708D02*
X21692Y5629D01*
X21692Y5629D02*
X21850Y5629D01*
X22047Y5629D02*
X23188Y4488D01*
X23188Y4488D02*
X23346Y4330D01*
X23346Y4330D02*
X26141Y4330D01*
X26141Y4330D02*
X28976Y4330D01*
X28976Y4330D02*
X28976Y4881D01*
X28976Y4881D02*
X28976Y5236D01*
X28976Y5236D02*
X27165Y7047D01*
X27165Y7047D02*
X25905Y8307D01*
X25905Y8307D02*
X25905Y10118D01*
X25905Y10118D02*
X25905Y23503D01*
X25905Y23503D02*
X27834Y25433D01*
X27834Y25433D02*
X27834Y26141D01*
X27834Y26141D02*
X27637Y26338D01*
X27637Y26338D02*
X27598Y26377D01*
X27598Y26377D02*
X27086Y26377D01*
X27086Y26377D02*
X21574Y26377D01*
X21574Y26377D02*
X20157Y27795D01*
X20157Y27795D02*
X19448Y28503D01*
X19448Y28503D02*
X17795Y28503D01*
X17795Y28503D02*
X17086Y28503D01*
X17086Y28503D02*
X15472Y26889D01*
X15472Y26889D02*
X15275Y26692D01*
X15275Y26692D02*
X13425Y26692D01*
X13425Y26692D02*
X3307Y26692D01*
X3307Y26692D02*
X3070Y26456D01*
X3070Y26456D02*
X3070Y25905D01*
X3070Y25905D02*
X4173Y24803D01*
X4173Y24803D02*
X4803Y24173D01*
X4803Y24173D02*
X4803Y22401D01*
X4803Y22401D02*
X4803Y7401D01*
X4803Y7401D02*
X4133Y6732D01*
X4133Y6732D02*
X3503Y6102D01*
X3503Y6102D02*
X3503Y5708D01*
X3503Y5708D02*
X3779Y5433D01*
X3779Y5433D02*
X4606Y5433D01*
X4606Y5433D02*
X6299Y5433D01*
X6299Y5433D02*
X6299Y6929D01*
X6299Y6929D02*
X6299Y8307D01*
X6299Y8307D02*
X6574Y8582D01*
X6574Y8582D02*
X6811Y8582D01*
X6811Y8582D02*
X6811Y8582D01*
X6811Y8582D02*
X6811Y8582D01*
X6811Y8582D02*
X8110Y8582D01*
X8110Y8582D02*
X8858Y8582D01*
X8858Y8582D02*
X8858Y8582D01*
X8858Y8582D02*
X9488Y8582D01*
X9488Y8582D02*
X10039Y8582D01*
X10039Y8582D02*
X10590Y8070D01*
X10590Y8070D02*
X19488Y8070D01*
X19488Y8070D02*
X20472Y8070D01*
X20472Y8070D02*
X20984Y7559D01*
X20984Y7559D02*
X20984Y6023D01*
X20984Y6023D02*
X21377Y5629D01*
X21929Y5629D02*
X21377Y5629D01*
X21850Y5629D02*
X21929Y5629D01*
X21929Y5629D02*
X22047Y5629D01*
X7598Y6181D02*
X7598Y8070D01*
X13503Y6181D02*
X7598Y6181D01*
X7598Y6181D02*
X7598Y6181D01*
D16*
X10551Y25196D02*
X10275Y24921D01*
X10275Y24921D02*
X10275Y24724D01*
X10275Y24724D02*
X10275Y24370D01*
X10275Y24370D02*
X10551Y24094D01*
X10551Y24094D02*
X10551Y23188D01*
X10551Y23188D02*
X9251Y21889D01*
D15*
X13661Y22755D02*
X14055Y23149D01*
X18385Y27440D02*
X14055Y23149D01*
X12637Y22755D02*
X13661Y22755D01*
X12637Y22755D02*
X12165Y22362D01*
D16*
X12952Y22362D02*
X13779Y22362D01*
X13779Y22362D02*
X14527Y23110D01*
X14527Y23110D02*
X18267Y26850D01*
X18267Y26850D02*
X18661Y26850D01*
D15*
X18740Y27440D02*
X18385Y27440D01*
X12480Y23622D02*
X11732Y23622D01*
X11732Y23622D02*
X11732Y24527D01*
X11732Y24527D02*
X12244Y25039D01*
X12244Y25039D02*
X12244Y25354D01*
X12244Y25354D02*
X12244Y25393D01*
X12244Y25393D02*
X11377Y26259D01*
X11377Y26259D02*
X11141Y26496D01*
X11141Y26496D02*
X10787Y26496D01*
X10787Y26496D02*
X10118Y26496D01*
X10118Y26496D02*
X6141Y22519D01*
X6141Y22519D02*
X5905Y22283D01*
X5905Y22283D02*
X5905Y21141D01*
X5905Y21141D02*
X5905Y19527D01*
X5905Y19527D02*
X6141Y19291D01*
X6141Y19291D02*
X6141Y16023D01*
X6141Y16023D02*
X5984Y15866D01*
X5984Y15866D02*
X5984Y15354D01*
X5984Y15354D02*
X6338Y15000D01*
X6338Y15000D02*
X8818Y15000D01*
X8818Y15000D02*
X9960Y16141D01*
X9960Y16141D02*
X9960Y18543D01*
X9960Y18543D02*
X10629Y19212D01*
X10629Y19212D02*
X10866Y19212D01*
X10866Y19212D02*
X11062Y19015D01*
X11062Y19015D02*
X11062Y17283D01*
X11062Y17283D02*
X12755Y15590D01*
X12755Y15590D02*
X13779Y15590D01*
X13779Y15590D02*
X14881Y14488D01*
X14881Y14488D02*
X15275Y14488D01*
X15275Y14488D02*
X15511Y14724D01*
X15511Y14724D02*
X15511Y16220D01*
X15511Y16220D02*
X15708Y16417D01*
X15708Y16417D02*
X16141Y16417D01*
X16141Y16417D02*
X16377Y16653D01*
X16377Y16653D02*
X16417Y16692D01*
X16417Y16692D02*
X16417Y16889D01*
X16417Y16889D02*
X16417Y16968D01*
X16417Y16968D02*
X16259Y17125D01*
X16259Y17125D02*
X16141Y17244D01*
X16141Y17244D02*
X15826Y17244D01*
X15826Y17244D02*
X13858Y17244D01*
X13858Y17244D02*
X13740Y17362D01*
X13740Y17362D02*
X13503Y17598D01*
X13503Y17598D02*
X13503Y17913D01*
X13503Y17913D02*
X13818Y18228D01*
X13818Y18228D02*
X13818Y21850D01*
X13818Y21850D02*
X14763Y22795D01*
X14763Y22795D02*
X16771Y24803D01*
X16771Y24803D02*
X17007Y24803D01*
X17007Y24803D02*
X17440Y24370D01*
X17440Y24370D02*
X17440Y23425D01*
X17440Y23425D02*
X17440Y22834D01*
X17440Y22834D02*
X17086Y22480D01*
X17086Y22480D02*
X17086Y22086D01*
X17086Y22086D02*
X17322Y21850D01*
X17322Y21850D02*
X17716Y21850D01*
X17716Y21850D02*
X17992Y22125D01*
X17992Y22125D02*
X19133Y23267D01*
X19133Y23267D02*
X19133Y27362D01*
X19133Y27362D02*
X19133Y27598D01*
X19133Y27598D02*
X19015Y27716D01*
X19015Y27716D02*
X18897Y27834D01*
X18897Y27834D02*
X18503Y27834D01*
X18503Y27834D02*
X18267Y27834D01*
X18267Y27834D02*
X14055Y23622D01*
X14055Y23622D02*
X14055Y26417D01*
X14055Y23622D02*
X12480Y23622D01*
X15826Y17244D02*
X15629Y17244D01*
X15629Y19921D02*
X16417Y20708D01*
X16417Y20708D02*
X16535Y20826D01*
X16535Y20826D02*
X18267Y20826D01*
X18267Y20826D02*
X18622Y20826D01*
X18622Y20826D02*
X20826Y18622D01*
X20826Y18622D02*
X20905Y18543D01*
X20905Y18543D02*
X20905Y16417D01*
X20905Y16417D02*
X20905Y16181D01*
X20905Y16181D02*
X20708Y15984D01*
X20708Y15984D02*
X20669Y15944D01*
X20669Y15944D02*
X19488Y15944D01*
X19488Y15944D02*
X19251Y15944D01*
X19251Y15944D02*
X19015Y16181D01*
X19015Y16181D02*
X19015Y16535D01*
X19015Y16535D02*
X19291Y16811D01*
X19291Y16811D02*
X19685Y16811D01*
X19685Y16811D02*
X20196Y17322D01*
X20196Y17322D02*
X20196Y18267D01*
X20196Y18267D02*
X18897Y19566D01*
X18897Y19566D02*
X18622Y19566D01*
X18622Y19566D02*
X18503Y19448D01*
X18503Y19448D02*
X18503Y16771D01*
X18503Y16771D02*
X17480Y15748D01*
X17480Y15748D02*
X17401Y15669D01*
X17401Y15669D02*
X17125Y15669D01*
X17125Y15669D02*
X16889Y15905D01*
X16889Y15905D02*
X16889Y16220D01*
X16889Y16220D02*
X17874Y17204D01*
X17874Y17204D02*
X17874Y18031D01*
X17874Y18031D02*
X16771Y19133D01*
X16771Y19133D02*
X15944Y19133D01*
X15944Y19133D02*
X15629Y19448D01*
X15629Y19448D02*
X15629Y19527D01*
X15629Y19527D02*
X15629Y17244D01*
X15629Y19527D02*
X15629Y19921D01*
D16*
X433Y16850D02*
X1062Y16850D01*
D15*
X1062Y15196D02*
X1141Y15196D01*
X826Y15196D02*
X1062Y15196D01*
X1062Y15196D02*
X1141Y15196D01*
X433Y15826D02*
X433Y15590D01*
X433Y15826D02*
X433Y15590D01*
X433Y15826D02*
X433Y16850D01*
D16*
X433Y15826D02*
X1062Y15826D01*
X1062Y16850D02*
X1062Y15826D01*
X1062Y15826D02*
X1062Y15196D01*
X13070Y433D02*
X13070Y1062D01*
X13070Y1062D02*
X14724Y1062D01*
D15*
X14724Y1062D02*
X14724Y826D01*
X14724Y1062D02*
X14724Y2007D01*
D16*
X14724Y1062D02*
X14094Y1062D01*
X14094Y1062D02*
X14094Y433D01*
D15*
X14094Y433D02*
X14330Y433D01*
X13149Y433D02*
X14094Y433D01*
X14094Y433D02*
X14330Y433D01*
D16*
X31062Y13098D02*
X30433Y13098D01*
D15*
X30433Y14724D02*
X30314Y14724D01*
X30669Y14724D02*
X30433Y14724D01*
X30433Y14724D02*
X30314Y14724D01*
D16*
X30433Y14094D02*
X31062Y14094D01*
X30433Y13098D02*
X30433Y14094D01*
X30433Y14094D02*
X30433Y14724D01*
D15*
X24842Y29763D02*
X24921Y29763D01*
X25118Y30866D02*
X24921Y30866D01*
X24921Y30866D02*
X23818Y30866D01*
X25472Y30354D02*
X25472Y30314D01*
X25472Y30314D02*
X24921Y30314D01*
X24921Y29763D02*
X24921Y30314D01*
X24921Y30314D02*
X24921Y30866D01*
X29921Y26692D02*
X29527Y26692D01*
X29527Y26692D02*
X26259Y23425D01*
X26259Y23425D02*
X26259Y14409D01*
X27440Y9881D02*
X30236Y7086D01*
D17*
X13098Y30814D02*
X15039Y30814D01*
X15039Y30814D02*
X14921Y30814D01*
X14921Y30814D02*
X14921Y31062D01*
X14921Y31062D02*
X31062Y31062D01*
X31062Y31062D02*
X31062Y28700D01*
D16*
X31181Y14409D02*
X31181Y10905D01*
X31181Y10905D02*
X31181Y10748D01*
X31181Y10748D02*
X31062Y10629D01*
D17*
X31062Y10629D02*
X31062Y433D01*
X31062Y433D02*
X25669Y433D01*
X25669Y433D02*
X25669Y1496D01*
X25669Y1496D02*
X25236Y1929D01*
X25236Y1929D02*
X21456Y1929D01*
X21456Y1929D02*
X20748Y1220D01*
X20748Y1220D02*
X20748Y393D01*
X20748Y393D02*
X14527Y393D01*
D16*
X14527Y393D02*
X14527Y354D01*
X14527Y354D02*
X10944Y354D01*
X10944Y354D02*
X10708Y354D01*
X10708Y354D02*
X10629Y393D01*
D17*
X10629Y393D02*
X433Y433D01*
X433Y433D02*
X433Y15354D01*
D16*
X433Y15354D02*
X354Y15433D01*
X354Y15433D02*
X354Y18858D01*
X354Y18858D02*
X354Y19212D01*
X354Y19212D02*
X433Y19330D01*
D17*
X433Y19330D02*
X433Y31062D01*
X433Y31062D02*
X10275Y31062D01*
X10275Y31062D02*
X10275Y29448D01*
X10275Y29448D02*
X10787Y28937D01*
X10787Y28937D02*
X14448Y28937D01*
X14448Y28937D02*
X14960Y29448D01*
X14960Y29448D02*
X14960Y30826D01*
X14960Y30826D02*
X23425Y30826D01*
X23425Y30826D02*
X23110Y30511D01*
X23110Y30511D02*
X23110Y30078D01*
X23110Y30078D02*
X23622Y29566D01*
X23622Y29566D02*
X25118Y29527D01*
X25118Y29527D02*
X25708Y30118D01*
X25669Y30590D02*
X25708Y30118D01*
X25393Y30826D02*
X25669Y30590D01*
X25393Y30826D02*
X25472Y30748D01*
X25472Y30748D02*
X30472Y30748D01*
X30472Y30748D02*
X30708Y30748D01*
X30708Y30748D02*
X30708Y29015D01*
X30708Y14921D02*
X31023Y14606D01*
X31023Y14606D02*
X31062Y28700D01*
D16*
X31023Y14606D02*
X31181Y14409D01*
D17*
X30708Y14921D02*
X29055Y14921D01*
X29055Y14921D02*
X28740Y14606D01*
X28740Y14606D02*
X28582Y14448D01*
X28582Y14448D02*
X28582Y10787D01*
X28582Y10787D02*
X29133Y10236D01*
X30590Y10275D02*
X29133Y10236D01*
X30826Y10393D02*
X30590Y10275D01*
X25944Y1692D02*
X25393Y2244D01*
X25393Y2244D02*
X21299Y2244D01*
X21299Y2244D02*
X20472Y1417D01*
X20472Y1417D02*
X20472Y629D01*
X20472Y629D02*
X14763Y629D01*
X14763Y629D02*
X14921Y629D01*
X14921Y629D02*
X14921Y2322D01*
X14921Y2322D02*
X14291Y2952D01*
X14291Y2952D02*
X10826Y2952D01*
X10826Y2952D02*
X10275Y2401D01*
X10275Y629D02*
X10275Y2401D01*
X10629Y393D02*
X10354Y669D01*
X10354Y669D02*
X8031Y669D01*
X8031Y669D02*
X8385Y1023D01*
X8385Y1023D02*
X8385Y1417D01*
X8385Y1417D02*
X7874Y1929D01*
X7874Y1929D02*
X6338Y1929D01*
X6338Y1929D02*
X5787Y1377D01*
X5787Y1377D02*
X5787Y984D01*
X6141Y669D02*
X5787Y984D01*
X6141Y669D02*
X6062Y748D01*
X6062Y748D02*
X669Y748D01*
D15*
X236Y15196D02*
X669Y15157D01*
X669Y15157D02*
X826Y15196D01*
D17*
X669Y15157D02*
X826Y15000D01*
X826Y15000D02*
X2362Y15000D01*
X2362Y15000D02*
X2913Y15551D01*
X2913Y15551D02*
X2913Y19094D01*
X2913Y19094D02*
X2362Y19645D01*
X944Y19645D02*
X2362Y19645D01*
X669Y19488D02*
X944Y19645D01*
X669Y19488D02*
X669Y30787D01*
X669Y30787D02*
X6102Y30787D01*
X6102Y30787D02*
X5787Y30472D01*
X6299Y29566D02*
X7834Y29566D01*
X7834Y29566D02*
X8385Y30118D01*
X8385Y30118D02*
X8385Y30748D01*
X8385Y30748D02*
X8307Y30826D01*
X8307Y30826D02*
X8070Y30826D01*
X8070Y30826D02*
X8188Y30708D01*
X8188Y30708D02*
X10000Y30708D01*
X10000Y30708D02*
X10000Y29251D01*
X10000Y29251D02*
X10551Y28700D01*
X10551Y28700D02*
X14724Y28700D01*
X14724Y28700D02*
X15393Y29370D01*
X15393Y29370D02*
X15314Y29448D01*
X15314Y29448D02*
X15314Y30551D01*
X15314Y30551D02*
X22834Y30551D01*
X22834Y30551D02*
X22834Y29921D01*
X22834Y29921D02*
X23582Y29173D01*
X23582Y29173D02*
X25236Y29173D01*
X25236Y29173D02*
X25984Y29921D01*
X25984Y29921D02*
X25984Y30472D01*
X30708Y29015D02*
X30669Y24409D01*
X30669Y24409D02*
X30708Y14921D01*
X30708Y14921D02*
X30354Y15275D01*
X30354Y15275D02*
X28937Y15275D01*
X28937Y15275D02*
X28228Y14566D01*
X28228Y14566D02*
X28228Y10708D01*
X28228Y10708D02*
X28976Y9960D01*
X28976Y9960D02*
X30511Y9960D01*
X30511Y9960D02*
X30669Y9803D01*
X30826Y10393D02*
X30669Y1102D01*
X30669Y1102D02*
X30826Y748D01*
X26220Y3110D02*
X26220Y2283D01*
X26220Y2283D02*
X25669Y2283D01*
X25669Y2283D02*
X25669Y2598D01*
X25669Y2598D02*
X21299Y2598D01*
X21299Y2598D02*
X20157Y1456D01*
X20157Y1456D02*
X20157Y866D01*
X20157Y866D02*
X15236Y866D01*
X15236Y866D02*
X15236Y2519D01*
X15236Y2519D02*
X14370Y3307D01*
X10787Y3346D02*
X9960Y2519D01*
X9960Y2519D02*
X9960Y1023D01*
X9960Y1023D02*
X8582Y1062D01*
X8582Y1062D02*
X8582Y1653D01*
X8582Y1653D02*
X8031Y2204D01*
X8031Y2204D02*
X6181Y2204D01*
X6181Y2204D02*
X5984Y2007D01*
X5984Y2007D02*
X5472Y1496D01*
X5472Y1496D02*
X5472Y984D01*
X5472Y984D02*
X787Y984D01*
X787Y984D02*
X787Y6220D01*
X669Y15157D02*
X787Y6220D01*
X787Y6220D02*
X669Y748D01*
X826Y15000D02*
X826Y14645D01*
X826Y14645D02*
X2440Y14645D01*
X2440Y14645D02*
X3307Y15511D01*
X3307Y15511D02*
X3307Y19212D01*
X3307Y19212D02*
X2559Y19960D01*
X2559Y19960D02*
X984Y19960D01*
X984Y19960D02*
X984Y30511D01*
X984Y30511D02*
X5629Y30511D01*
X5629Y29606D02*
X5748Y29606D01*
X5748Y29606D02*
X6102Y29251D01*
X6102Y29251D02*
X8031Y29251D01*
X8031Y29251D02*
X8700Y29921D01*
X8700Y29921D02*
X8700Y30354D01*
X8700Y30354D02*
X9685Y30354D01*
X9685Y30354D02*
X9685Y29094D01*
X9685Y29094D02*
X10354Y28425D01*
X10354Y28425D02*
X14960Y28425D01*
X14960Y28425D02*
X15629Y29094D01*
X15629Y29094D02*
X15629Y30196D01*
X15629Y30196D02*
X22519Y30196D01*
X22519Y30196D02*
X22519Y29803D01*
X22519Y29803D02*
X23385Y28937D01*
X23385Y28937D02*
X25433Y28937D01*
X25433Y28937D02*
X25748Y29251D01*
X25748Y29251D02*
X25748Y30118D01*
X25748Y30118D02*
X30314Y30118D01*
X30551Y30472D02*
X30669Y24409D01*
X30354Y27480D02*
X30314Y30118D01*
X30354Y27480D02*
X30157Y27677D01*
X30157Y27677D02*
X29566Y27677D01*
X29566Y27677D02*
X28779Y26889D01*
X28779Y26889D02*
X21771Y26889D01*
X21771Y26889D02*
X19606Y29055D01*
X19606Y29055D02*
X17007Y29055D01*
X17007Y29055D02*
X15196Y27244D01*
X15196Y27244D02*
X6220Y27244D01*
X6220Y27244D02*
X1850Y27244D01*
X1850Y27244D02*
X1220Y26614D01*
X1220Y26614D02*
X1220Y30196D01*
X1220Y30196D02*
X2834Y30196D01*
X2834Y30196D02*
X4763Y30196D01*
X4763Y30196D02*
X5944Y29015D01*
X5944Y29015D02*
X8031Y29015D01*
X8031Y29015D02*
X9055Y30039D01*
X9055Y30039D02*
X9448Y30039D01*
X9448Y30039D02*
X9448Y29173D01*
X9448Y29173D02*
X10511Y28110D01*
X10511Y28110D02*
X15039Y28110D01*
X15039Y28110D02*
X15984Y29055D01*
X15984Y29055D02*
X15984Y29881D01*
X15984Y29881D02*
X22322Y29881D01*
X22322Y29881D02*
X23582Y28622D01*
X23582Y28622D02*
X25590Y28622D01*
X25590Y28622D02*
X25787Y28818D01*
X25787Y28818D02*
X26771Y29803D01*
X26771Y29803D02*
X30000Y29803D01*
X30000Y29803D02*
X30000Y27992D01*
X30000Y27992D02*
X29488Y27992D01*
X29488Y27992D02*
X28740Y27244D01*
X28740Y27244D02*
X21929Y27244D01*
X21929Y27244D02*
X19803Y29370D01*
X19803Y29370D02*
X17007Y29370D01*
X17007Y29370D02*
X15196Y27559D01*
X15196Y27559D02*
X1889Y27559D01*
X1496Y27204D02*
X1889Y27559D01*
X1496Y27204D02*
X1496Y29881D01*
X1496Y29881D02*
X2913Y29881D01*
X2913Y29881D02*
X3976Y28818D01*
X3976Y28818D02*
X8267Y28818D01*
X9173Y29724D02*
X8267Y28818D01*
X9173Y29724D02*
X9173Y28976D01*
X9173Y28976D02*
X10275Y27874D01*
X10275Y27874D02*
X15039Y27874D01*
X15039Y27874D02*
X16338Y29173D01*
X16338Y29606D02*
X16338Y29173D01*
X16338Y29606D02*
X16338Y29566D01*
X16338Y29566D02*
X16574Y29330D01*
X16692Y29606D02*
X16574Y29330D01*
X16692Y29606D02*
X22165Y29606D01*
X22165Y29606D02*
X23385Y28385D01*
X25551Y28385D02*
X23385Y28385D01*
X26614Y29448D02*
X29724Y29448D01*
X29724Y29448D02*
X29724Y28307D01*
X29724Y28307D02*
X29370Y28307D01*
X29370Y28307D02*
X28661Y27598D01*
X28661Y27598D02*
X22047Y27598D01*
X20236Y29370D02*
X22047Y27598D01*
X20236Y29370D02*
X21889Y29370D01*
X21889Y29370D02*
X23149Y28110D01*
X23149Y28110D02*
X25748Y28110D01*
X25748Y28110D02*
X26102Y28464D01*
X26102Y28464D02*
X26771Y29133D01*
X26771Y29133D02*
X29448Y29133D01*
X29448Y29133D02*
X29448Y28700D01*
X29448Y28700D02*
X28582Y27834D01*
X28582Y27834D02*
X22125Y27834D01*
X22125Y27834D02*
X20826Y29133D01*
X20826Y29133D02*
X21692Y29133D01*
X21692Y29133D02*
X22755Y28070D01*
X22755Y28070D02*
X22204Y28070D01*
X21456Y28858D02*
X22204Y28070D01*
X28464Y28110D02*
X29212Y28858D01*
X29212Y28858D02*
X26889Y28858D01*
X26889Y28858D02*
X26338Y28188D01*
X25748Y28110D02*
X26338Y28188D01*
X26338Y28188D02*
X28464Y28110D01*
X28464Y28110D02*
X28346Y28110D01*
X28346Y28110D02*
X28070Y28385D01*
X28070Y28385D02*
X28307Y28622D01*
X28307Y28622D02*
X28622Y28622D01*
X28425Y28425D02*
X28622Y28622D01*
X9173Y28976D02*
X9094Y29055D01*
X9094Y29055D02*
X8858Y29055D01*
X8858Y29055D02*
X8858Y28897D01*
X8858Y28897D02*
X9960Y27795D01*
X9960Y27795D02*
X1771Y27795D01*
X1771Y27795D02*
X1771Y29527D01*
X2755Y29527D02*
X1771Y29527D01*
X2755Y29527D02*
X3503Y28779D01*
X3503Y28779D02*
X8582Y28779D01*
X9330Y28031D02*
X2086Y28031D01*
X2086Y28031D02*
X2086Y29173D01*
X2086Y29173D02*
X2637Y29173D01*
X2637Y29173D02*
X3543Y28267D01*
X3543Y28267D02*
X2440Y28267D01*
X2440Y28267D02*
X2440Y28858D01*
X2874Y28503D02*
X2440Y28858D01*
X9330Y28031D02*
X8937Y28425D01*
X30669Y9803D02*
X30472Y9803D01*
X30472Y9803D02*
X30472Y7086D01*
X30472Y7086D02*
X27637Y9921D01*
X27637Y9921D02*
X27637Y22874D01*
X30393Y25669D02*
X27637Y22874D01*
X30393Y25669D02*
X30393Y15551D01*
X30393Y15551D02*
X28779Y15551D01*
X28779Y15551D02*
X27952Y14724D01*
X27952Y14724D02*
X27952Y10551D01*
X27952Y10551D02*
X28858Y9645D01*
X28858Y9645D02*
X30196Y9645D01*
X30196Y9645D02*
X30196Y7716D01*
X27834Y10236D02*
X30196Y7716D01*
X27834Y10236D02*
X28740Y9330D01*
X28740Y9330D02*
X29921Y9330D01*
X29921Y9330D02*
X29960Y9291D01*
X29251Y9133D02*
X29960Y8385D01*
X29251Y9133D02*
X29448Y8937D01*
X29921Y9094D02*
X29448Y8937D01*
X29960Y9291D02*
X29921Y9094D01*
X29921Y9094D02*
X29960Y8385D01*
X27952Y14724D02*
X27952Y22874D01*
X27952Y22874D02*
X30118Y25039D01*
X30118Y25039D02*
X30196Y24960D01*
X28188Y15354D02*
X28188Y22716D01*
X28188Y22716D02*
X29960Y24488D01*
X29960Y21771D02*
X29960Y24488D01*
D15*
X31259Y21811D02*
X29960Y21771D01*
X29960Y21771D02*
X29685Y21811D01*
D17*
X29960Y21771D02*
X29685Y22047D01*
X29685Y22047D02*
X29685Y23858D01*
X29685Y23858D02*
X28543Y22755D01*
X28503Y15826D02*
X30196Y15826D01*
X28503Y15826D02*
X28188Y15354D01*
X28503Y15826D02*
X28503Y16102D01*
X28503Y16102D02*
X29881Y16102D01*
X30196Y17637D02*
X30196Y15826D01*
X30196Y24960D02*
X30196Y17637D01*
X30196Y17637D02*
X29881Y16102D01*
X30196Y17637D02*
X30039Y17637D01*
X30039Y17637D02*
X29842Y17440D01*
X29842Y17440D02*
X29842Y16417D01*
X29842Y16417D02*
X28818Y16417D01*
X28818Y16417D02*
X28818Y16732D01*
X28818Y16732D02*
X29566Y16732D01*
X29566Y16732D02*
X29566Y17047D01*
X29566Y17047D02*
X28779Y17047D01*
X28779Y17047D02*
X28779Y17362D01*
X28779Y17362D02*
X29566Y17362D01*
X29566Y17362D02*
X29094Y17362D01*
X29094Y17362D02*
X28543Y17834D01*
X28543Y22755D02*
X28543Y17834D01*
X28543Y17834D02*
X28503Y15826D01*
X29685Y22047D02*
X29173Y22047D01*
X29173Y22047D02*
X28740Y21614D01*
X28740Y21614D02*
X28740Y22519D01*
X28740Y22519D02*
X29448Y23228D01*
X29448Y23228D02*
X29448Y22755D01*
X29448Y22755D02*
X28976Y22283D01*
X29370Y22362D02*
X28976Y22283D01*
X30669Y1102D02*
X30511Y1259D01*
X30669Y9803D02*
X30669Y5984D01*
X30669Y5984D02*
X30669Y1102D01*
X30669Y5984D02*
X30472Y5984D01*
X30472Y5984D02*
X30472Y4133D01*
X30511Y1259D02*
X30472Y4133D01*
X30472Y4133D02*
X30669Y5984D01*
X30472Y4133D02*
X30118Y3779D01*
X30118Y3779D02*
X23307Y3779D01*
X23307Y3779D02*
X23228Y3779D01*
X23228Y3779D02*
X21889Y5118D01*
X21889Y5118D02*
X21653Y5118D01*
X21653Y5118D02*
X21653Y3543D01*
X21653Y3543D02*
X21653Y3425D01*
X21653Y3425D02*
X21023Y2795D01*
X21023Y2795D02*
X20905Y2677D01*
X20905Y2677D02*
X15354Y2677D01*
X15354Y2677D02*
X14527Y3464D01*
X14527Y3464D02*
X14566Y4881D01*
X14566Y4881D02*
X13464Y5984D01*
X13464Y5984D02*
X7716Y5984D01*
X7716Y5984D02*
X6614Y4881D01*
X6614Y4881D02*
X2677Y4881D01*
X2677Y4881D02*
X2204Y4409D01*
X2204Y4409D02*
X1338Y4409D01*
X984Y4606D02*
X1338Y4409D01*
X984Y4606D02*
X1102Y4488D01*
X1102Y4488D02*
X1102Y1299D01*
X1102Y1299D02*
X4803Y1299D01*
X4803Y1299D02*
X6062Y2559D01*
X6062Y2559D02*
X7716Y2559D01*
X7716Y2559D02*
X8897Y1377D01*
X9685Y1377D02*
X9685Y2677D01*
X9685Y2677D02*
X10629Y3622D01*
X10629Y3622D02*
X14330Y3622D01*
X14330Y3622D02*
X14330Y4685D01*
X14330Y4685D02*
X13346Y5669D01*
X13346Y5669D02*
X7952Y5669D01*
X7952Y5669D02*
X6811Y4527D01*
X6811Y4527D02*
X2795Y4527D01*
X2795Y4527D02*
X2401Y4133D01*
X2401Y4133D02*
X1456Y4133D01*
X1456Y4133D02*
X1456Y1614D01*
X1456Y1614D02*
X4606Y1614D01*
X4606Y1614D02*
X5905Y2913D01*
X5905Y2913D02*
X7755Y2913D01*
X7755Y2913D02*
X9094Y1574D01*
X8897Y1377D02*
X9094Y1574D01*
X9094Y1574D02*
X9094Y1299D01*
X9094Y1299D02*
X9409Y1299D01*
X9094Y1574D02*
X9409Y1299D01*
X9409Y1299D02*
X9685Y1377D01*
X9409Y1299D02*
X9409Y2913D01*
X9409Y2913D02*
X10472Y3976D01*
X10472Y3976D02*
X14015Y3976D01*
X14015Y3976D02*
X14015Y4527D01*
X14015Y4527D02*
X13188Y5354D01*
X13188Y5354D02*
X8110Y5354D01*
X8110Y5354D02*
X6968Y4212D01*
X6968Y4212D02*
X2913Y4212D01*
X2913Y4212D02*
X2519Y3818D01*
X2519Y3818D02*
X1732Y3818D01*
X1732Y3818D02*
X1732Y1968D01*
X1732Y1968D02*
X2834Y1968D01*
X2834Y1968D02*
X4488Y1968D01*
X4488Y1968D02*
X5708Y3188D01*
X5708Y3188D02*
X7874Y3188D01*
X7874Y3188D02*
X9173Y1889D01*
X9173Y1889D02*
X9173Y3188D01*
X9173Y3188D02*
X10314Y4330D01*
X13740Y4291D02*
X10314Y4330D01*
X13740Y4291D02*
X12992Y5039D01*
X12992Y5039D02*
X8228Y5039D01*
X8228Y5039D02*
X7047Y3858D01*
X7047Y3858D02*
X3070Y3858D01*
X3070Y3858D02*
X2677Y3464D01*
X2677Y3464D02*
X2007Y3464D01*
X2007Y3464D02*
X2007Y2322D01*
X2007Y2322D02*
X2874Y2322D01*
X2874Y2322D02*
X4291Y2322D01*
X4291Y2322D02*
X5511Y3543D01*
X5511Y3543D02*
X7913Y3543D01*
X7913Y3543D02*
X8937Y2519D01*
X8937Y2519D02*
X8937Y3385D01*
X8937Y3385D02*
X10157Y4606D01*
X13110Y4566D02*
X10157Y4606D01*
X13110Y4566D02*
X12952Y4724D01*
X12952Y4724D02*
X8385Y4724D01*
X7362Y3818D02*
X8385Y4724D01*
X7362Y3818D02*
X7992Y3818D01*
X7992Y3818D02*
X8700Y3110D01*
X8700Y3110D02*
X8700Y3464D01*
X8700Y3464D02*
X9645Y4409D01*
X9645Y4409D02*
X8464Y4409D01*
X8464Y4409D02*
X8031Y4055D01*
X8031Y4055D02*
X8149Y4015D01*
X8149Y4015D02*
X8503Y3661D01*
X8503Y3661D02*
X8543Y3661D01*
X8543Y3661D02*
X9015Y4133D01*
X8503Y4015D02*
X9015Y4133D01*
X2677Y3464D02*
X2322Y3110D01*
X2322Y3110D02*
X2322Y2637D01*
X4212Y2637D02*
X5196Y3622D01*
X3307Y3622D02*
X2598Y2913D01*
X4055Y2913D02*
X4566Y3425D01*
X3503Y3425D02*
X3228Y3149D01*
X3228Y3149D02*
X3503Y3149D01*
X3503Y3149D02*
X3818Y3464D01*
X5196Y3622D02*
X3818Y3464D01*
X3818Y3464D02*
X3307Y3622D01*
X4566Y3425D02*
X3818Y3464D01*
X3818Y3464D02*
X3503Y3425D01*
X15236Y866D02*
X15629Y866D01*
X15629Y866D02*
X15590Y2401D01*
X20748Y2440D02*
X15590Y2401D01*
X20748Y2440D02*
X19842Y1535D01*
X19842Y1535D02*
X19842Y1141D01*
X19842Y1141D02*
X15984Y1141D01*
X15984Y1141D02*
X15944Y2125D01*
X20118Y2125D02*
X15944Y2125D01*
X19566Y1417D02*
X20118Y2125D01*
X19566Y1417D02*
X16299Y1417D01*
X16299Y1417D02*
X16299Y1850D01*
X19566Y1850D02*
X16299Y1850D01*
X19566Y1850D02*
X19330Y1614D01*
X19330Y1614D02*
X16574Y1614D01*
X21299Y2598D02*
X21889Y3188D01*
X21889Y3188D02*
X21889Y4724D01*
X21889Y4724D02*
X23110Y3503D01*
X23110Y3503D02*
X30236Y3503D01*
X30236Y3503D02*
X30236Y1456D01*
X30236Y1456D02*
X28543Y1456D01*
X28543Y1456D02*
X27283Y1456D01*
X27283Y1456D02*
X25866Y2874D01*
X21929Y2874D02*
X22125Y3070D01*
X22125Y4055D02*
X22992Y3188D01*
X22992Y3188D02*
X29960Y3188D01*
X29960Y3188D02*
X29960Y1732D01*
X29960Y1732D02*
X28622Y1732D01*
X28267Y2913D02*
X29606Y2913D01*
X29606Y2913D02*
X29606Y2007D01*
X29606Y2007D02*
X28897Y2007D01*
X29370Y2598D02*
X29251Y2283D01*
X29094Y2519D02*
X29251Y2283D01*
X29094Y2519D02*
X29370Y2598D01*
X22992Y3188D02*
X22480Y3188D01*
X22480Y3188D02*
X22244Y3425D01*
X22125Y3070D02*
X22244Y3425D01*
X22244Y3425D02*
X22125Y4055D01*
X3307Y19212D02*
X3307Y23464D01*
X3307Y23464D02*
X1220Y25551D01*
X1220Y25551D02*
X1220Y20275D01*
X1220Y20275D02*
X2480Y20275D01*
X3070Y19881D02*
X3070Y23346D01*
X3070Y23346D02*
X1496Y24921D01*
X1496Y24921D02*
X1496Y20472D01*
X1496Y20472D02*
X2755Y20314D01*
X2755Y20314D02*
X2480Y20275D01*
X2755Y20314D02*
X3070Y19881D01*
X2755Y20314D02*
X2755Y23307D01*
X2755Y23307D02*
X1771Y24291D01*
X1771Y24291D02*
X1771Y20669D01*
X1771Y20669D02*
X2480Y20669D01*
X2480Y20669D02*
X2480Y23228D01*
X2480Y23228D02*
X2007Y23700D01*
X2007Y23700D02*
X2007Y20944D01*
X2007Y20944D02*
X2204Y20944D01*
X2244Y23110D02*
X2204Y20944D01*
X3307Y8543D02*
X1692Y6929D01*
X1692Y6929D02*
X1692Y6062D01*
X1692Y6062D02*
X984Y5354D01*
X984Y5354D02*
X984Y14370D01*
X2559Y14370D02*
X2598Y14370D01*
X2598Y14370D02*
X3307Y14960D01*
X3307Y15511D02*
X3307Y14960D01*
X3307Y14960D02*
X3307Y8543D01*
X2598Y14133D02*
X2795Y14330D01*
X2795Y14330D02*
X2992Y14330D01*
X2598Y14133D02*
X2992Y14330D01*
X2992Y14330D02*
X3307Y14960D01*
X2874Y8425D02*
X3070Y8622D01*
X2874Y8425D02*
X3070Y8622D01*
X2913Y13779D02*
X2874Y8425D01*
X2913Y13779D02*
X2992Y14330D01*
X2913Y13779D02*
X3070Y8622D01*
X2913Y13779D02*
X2322Y14370D01*
X2322Y14370D02*
X1614Y14370D01*
X984Y14370D02*
X1614Y14370D01*
X1614Y14370D02*
X2559Y14370D01*
X1614Y14370D02*
X1614Y14212D01*
X1614Y14212D02*
X1417Y14015D01*
X1417Y14015D02*
X1220Y14015D01*
X1220Y14015D02*
X1220Y5984D01*
X1220Y5984D02*
X1456Y5984D01*
X1456Y5984D02*
X1456Y8070D01*
X1456Y8070D02*
X1811Y7716D01*
X1811Y7716D02*
X2165Y7716D01*
X1653Y7283D02*
X1692Y7519D01*
X1653Y7283D02*
X1692Y7519D01*
X1692Y7519D02*
X2165Y7716D01*
X3385Y26496D02*
X3582Y26496D01*
X3385Y26496D02*
X3267Y26377D01*
X3267Y26377D02*
X3267Y25984D01*
X3267Y25984D02*
X5039Y24212D01*
X5039Y24212D02*
X5039Y7322D01*
X5039Y7322D02*
X3700Y5984D01*
X3700Y5984D02*
X3700Y5748D01*
X3700Y5748D02*
X3818Y5629D01*
X3818Y5629D02*
X6141Y5629D01*
X6141Y5629D02*
X6141Y8425D01*
X6141Y8425D02*
X6456Y8740D01*
X6456Y8740D02*
X10196Y8740D01*
X10196Y8740D02*
X10708Y8228D01*
X10708Y8228D02*
X20590Y8228D01*
X20590Y8228D02*
X21141Y7677D01*
X21141Y7677D02*
X21141Y6102D01*
X21141Y6102D02*
X21456Y5787D01*
X21456Y5787D02*
X22125Y5787D01*
X22125Y5787D02*
X23425Y4488D01*
X23425Y4488D02*
X28779Y4488D01*
X28779Y4488D02*
X28779Y5118D01*
X28779Y5118D02*
X25669Y8228D01*
X25669Y8228D02*
X25669Y23503D01*
X25669Y23503D02*
X27598Y25433D01*
X27598Y25433D02*
X27598Y26102D01*
X27598Y26102D02*
X27519Y26181D01*
X27519Y26181D02*
X21614Y26181D01*
X21614Y26181D02*
X21417Y26181D01*
X21417Y26181D02*
X19291Y28307D01*
X19291Y28307D02*
X17165Y28307D01*
X17165Y28307D02*
X15354Y26496D01*
X11417Y26496D02*
X15354Y26496D01*
D16*
X11417Y26496D02*
X11338Y26574D01*
X11338Y26574D02*
X11102Y26574D01*
X11102Y26574D02*
X10039Y26574D01*
X10039Y26574D02*
X10000Y26535D01*
D17*
X3897Y26535D02*
X3582Y26181D01*
X3582Y26181D02*
X5275Y24488D01*
X5275Y24488D02*
X5275Y7244D01*
X3700Y5984D02*
X5866Y5984D01*
X5866Y5984D02*
X5866Y8622D01*
X5866Y8622D02*
X6299Y9055D01*
X6299Y9055D02*
X10393Y9055D01*
X10393Y9055D02*
X10866Y8582D01*
X10866Y8582D02*
X20708Y8582D01*
X20708Y8582D02*
X21456Y7834D01*
X21456Y6220D02*
X21456Y7834D01*
X21456Y6220D02*
X21535Y6141D01*
X21535Y6141D02*
X22204Y6141D01*
X22204Y6141D02*
X23543Y4803D01*
X23543Y4803D02*
X28503Y4803D01*
X28503Y4803D02*
X28503Y4960D01*
X28503Y4960D02*
X25354Y8110D01*
X25354Y8110D02*
X25354Y23700D01*
X25354Y23700D02*
X27204Y25551D01*
X27204Y25551D02*
X27204Y25826D01*
X27204Y25826D02*
X21338Y25826D01*
X19133Y28031D02*
X17283Y28031D01*
X17283Y28031D02*
X15472Y26220D01*
X15472Y26220D02*
X11614Y26220D01*
X11614Y26220D02*
X12480Y25354D01*
X12480Y25354D02*
X12480Y25039D01*
X12480Y25039D02*
X11929Y24488D01*
X11929Y24488D02*
X11929Y23818D01*
X11929Y23818D02*
X14015Y23818D01*
X14015Y23818D02*
X18031Y27834D01*
X18031Y27834D02*
X17559Y27834D01*
X17559Y27834D02*
X15669Y25944D01*
X12283Y25944D02*
X15669Y25944D01*
X12283Y25944D02*
X12834Y25393D01*
X12834Y25393D02*
X12834Y25078D01*
X12834Y25078D02*
X12204Y24448D01*
X12204Y24448D02*
X12204Y24133D01*
X12204Y24133D02*
X13897Y24133D01*
X13897Y24133D02*
X15472Y25708D01*
X12913Y25708D02*
X15472Y25708D01*
X12913Y25708D02*
X13188Y25433D01*
X13188Y25433D02*
X14842Y25433D01*
X14842Y25433D02*
X13779Y24370D01*
X13779Y24370D02*
X12598Y24370D01*
X12598Y24370D02*
X13149Y24921D01*
X13149Y24921D02*
X13149Y25196D01*
X13149Y25196D02*
X13228Y25118D01*
X13228Y25118D02*
X14212Y25118D01*
X13188Y24645D02*
X13385Y24842D01*
X13385Y24842D02*
X13818Y24763D01*
X13818Y24763D02*
X14212Y25118D01*
X13818Y24763D02*
X13188Y24645D01*
X19133Y28031D02*
X19094Y27874D01*
X19094Y27874D02*
X19370Y27716D01*
X21338Y25826D02*
X19370Y27716D01*
X19370Y27716D02*
X19133Y28031D01*
X19370Y27716D02*
X19370Y23149D01*
X19370Y23149D02*
X17874Y21653D01*
X17874Y21653D02*
X17165Y21653D01*
X17165Y21653D02*
X16850Y21968D01*
X16850Y21968D02*
X16850Y22559D01*
X16850Y22559D02*
X17244Y22952D01*
X17244Y22952D02*
X17244Y24251D01*
X17244Y24251D02*
X16889Y24606D01*
X16889Y24606D02*
X14055Y21771D01*
X14055Y21771D02*
X14055Y18188D01*
X14055Y18188D02*
X13740Y17874D01*
X13740Y17874D02*
X13740Y17677D01*
X13740Y17677D02*
X13937Y17480D01*
X13937Y17480D02*
X15472Y17480D01*
X15472Y17480D02*
X15472Y20078D01*
X15472Y20078D02*
X16456Y21062D01*
X16456Y21062D02*
X18700Y21062D01*
X18700Y21062D02*
X21102Y18661D01*
X21102Y18661D02*
X21102Y16023D01*
X21102Y16023D02*
X20826Y15748D01*
X20826Y15748D02*
X19133Y15748D01*
X19133Y15748D02*
X18818Y16062D01*
X18818Y16062D02*
X18818Y16692D01*
X18818Y16692D02*
X19173Y17047D01*
X19173Y17047D02*
X19566Y17047D01*
X19566Y17047D02*
X20000Y17480D01*
X20000Y17480D02*
X20000Y18110D01*
X20000Y18110D02*
X18700Y19409D01*
X18661Y16968D02*
X18700Y19409D01*
X19645Y17598D02*
X19645Y17952D01*
X18897Y18779D02*
X19645Y17952D01*
X18897Y18779D02*
X19291Y18385D01*
X19291Y18385D02*
X19370Y17362D01*
X19370Y17362D02*
X19645Y17598D01*
X18897Y18779D02*
X18976Y18700D01*
X18976Y18700D02*
X19015Y17322D01*
X19015Y17322D02*
X18661Y16968D01*
X19015Y17322D02*
X19370Y17362D01*
X18661Y16968D02*
X18661Y16653D01*
X18661Y16653D02*
X17480Y15472D01*
X17480Y15472D02*
X17047Y15472D01*
X17047Y15472D02*
X16732Y15787D01*
X16732Y15787D02*
X16732Y16377D01*
X16732Y16377D02*
X17677Y17322D01*
X17677Y17322D02*
X17677Y17913D01*
X17677Y17913D02*
X16692Y18897D01*
X16692Y18897D02*
X15984Y18897D01*
X15984Y18897D02*
X15748Y19133D01*
X15787Y17440D02*
X15748Y19133D01*
X15787Y17440D02*
X16181Y17440D01*
X16181Y17440D02*
X16614Y17007D01*
X16614Y16732D02*
X16614Y17007D01*
X16614Y16732D02*
X17283Y17401D01*
X17283Y17401D02*
X17283Y17795D01*
X17283Y17795D02*
X16496Y18582D01*
X16496Y18582D02*
X16102Y18582D01*
X16102Y18582D02*
X16929Y17755D01*
X16929Y17755D02*
X16929Y17480D01*
X16692Y17322D02*
X16929Y17480D01*
X16692Y17322D02*
X16692Y17598D01*
X16692Y17598D02*
X15984Y18307D01*
X16141Y17716D02*
X15984Y18307D01*
X16141Y17716D02*
X16220Y17716D01*
X16220Y17716D02*
X16456Y17480D01*
X16614Y16732D02*
X16614Y16535D01*
X16614Y16535D02*
X16299Y16220D01*
X15787Y16220D02*
X16299Y16220D01*
X15787Y16220D02*
X15708Y16141D01*
X15708Y16141D02*
X15708Y14606D01*
X15708Y14606D02*
X15393Y14291D01*
X15393Y14291D02*
X14803Y14291D01*
X14803Y14291D02*
X13700Y15393D01*
X13700Y15393D02*
X12677Y15393D01*
X12677Y15393D02*
X10826Y17244D01*
X10826Y17244D02*
X10826Y18976D01*
X10826Y18976D02*
X10708Y18976D01*
X10157Y18425D02*
X10157Y16023D01*
X10157Y16023D02*
X8897Y14763D01*
X8897Y14763D02*
X6299Y14763D01*
X6299Y14763D02*
X5748Y15314D01*
X5748Y15314D02*
X5748Y15905D01*
X5748Y15905D02*
X5984Y16141D01*
X5984Y16141D02*
X5984Y19133D01*
X5984Y19133D02*
X5708Y19409D01*
X8740Y26496D02*
X3897Y26535D01*
X8858Y25433D02*
X8740Y26496D01*
D16*
X9881Y26496D02*
X10000Y26535D01*
D17*
X9881Y26496D02*
X8740Y26496D01*
X9881Y26496D02*
X8858Y25433D01*
X9881Y26496D02*
X8740Y26496D01*
X9881Y26496D02*
X8858Y25433D01*
X9212Y26220D02*
X8740Y26496D01*
X5748Y22401D02*
X9212Y26220D01*
X5748Y22401D02*
X5708Y19409D01*
X5748Y22401D02*
X8858Y25433D01*
X3897Y26535D02*
X3897Y26338D01*
X3897Y26338D02*
X5629Y24606D01*
X5551Y22677D02*
X5629Y24606D01*
X5551Y22677D02*
X8425Y25551D01*
X8425Y25551D02*
X8425Y26220D01*
X8425Y26220D02*
X8346Y26299D01*
X8346Y26299D02*
X4370Y26299D01*
X4370Y26299D02*
X5866Y24803D01*
X5866Y24803D02*
X5866Y23346D01*
X5866Y23346D02*
X8110Y25590D01*
X8110Y25590D02*
X8110Y25984D01*
X8110Y25984D02*
X5000Y25984D01*
X5000Y25984D02*
X6141Y24842D01*
X6141Y24842D02*
X6141Y23976D01*
X7834Y25669D02*
X6141Y23976D01*
X7834Y25669D02*
X7755Y25748D01*
X7755Y25748D02*
X5590Y25748D01*
X5590Y25748D02*
X6377Y24960D01*
X6377Y24960D02*
X6377Y24606D01*
X7322Y25511D02*
X6377Y24606D01*
X7322Y25511D02*
X6181Y25472D01*
X6614Y25196D02*
X6181Y25472D01*
X5511Y16102D02*
X5708Y16299D01*
X5708Y16299D02*
X5629Y19173D01*
X5629Y19173D02*
X5551Y22677D01*
X5629Y19173D02*
X5511Y16102D01*
X5511Y16102D02*
X5472Y16062D01*
X5472Y16062D02*
X5472Y6220D01*
X5472Y6220D02*
X5433Y6259D01*
X5433Y6259D02*
X4724Y6259D01*
X5236Y6614D02*
X4724Y6259D01*
X5236Y6614D02*
X5196Y6653D01*
X5196Y6653D02*
X5196Y6929D01*
X4094Y5944D02*
X5196Y6929D01*
X5196Y6929D02*
X5275Y7244D01*
X5196Y6929D02*
X5196Y8425D01*
X5196Y8425D02*
X6141Y9370D01*
X6141Y9370D02*
X10590Y9370D01*
X10590Y9370D02*
X11023Y8937D01*
X11023Y8937D02*
X20826Y8937D01*
X20826Y8937D02*
X21732Y8031D01*
X21732Y8031D02*
X21732Y6496D01*
X21732Y6496D02*
X22244Y6496D01*
X22244Y6496D02*
X23661Y5078D01*
X23661Y5078D02*
X28070Y5078D01*
X28070Y5078D02*
X25039Y8110D01*
X25039Y8110D02*
X25039Y23779D01*
X26850Y25590D02*
X25039Y23779D01*
X26850Y25590D02*
X26732Y25472D01*
X26732Y25472D02*
X21338Y25472D01*
X19566Y27165D02*
X21338Y25472D01*
X19566Y27165D02*
X19566Y22913D01*
X19566Y22913D02*
X18031Y21377D01*
X18031Y21377D02*
X17007Y21377D01*
X17007Y21377D02*
X16574Y21811D01*
X16574Y21811D02*
X16574Y22795D01*
X16574Y22795D02*
X16889Y23110D01*
X16889Y24212D02*
X16889Y23110D01*
X16889Y24212D02*
X14409Y21732D01*
X14409Y21732D02*
X14409Y18031D01*
X14133Y17795D02*
X14409Y18031D01*
X14133Y17795D02*
X15196Y17795D01*
X15196Y17795D02*
X15196Y20236D01*
X16692Y21338D02*
X16220Y21811D01*
X16220Y21811D02*
X16220Y22795D01*
X16220Y22795D02*
X16614Y23188D01*
X16614Y23188D02*
X16653Y23622D01*
X16653Y23622D02*
X14724Y21653D01*
X14724Y21653D02*
X14724Y18070D01*
X14724Y18070D02*
X15039Y18070D01*
X15039Y18070D02*
X15039Y21574D01*
X15944Y22519D02*
X15039Y21574D01*
X16220Y21338D02*
X15196Y20236D01*
X16220Y21338D02*
X16692Y21338D01*
X16220Y21338D02*
X15944Y22519D01*
X16220Y21338D02*
X15944Y21338D01*
X15944Y21338D02*
X15275Y20669D01*
X15275Y20669D02*
X15275Y21456D01*
X15275Y21456D02*
X15787Y21968D01*
X15787Y21968D02*
X15787Y21535D01*
X15787Y21535D02*
X15511Y21259D01*
X18031Y21377D02*
X18937Y21377D01*
X18937Y21377D02*
X21456Y18858D01*
X21456Y18858D02*
X21456Y15866D01*
X21456Y15866D02*
X20984Y15393D01*
X20984Y15393D02*
X19015Y15393D01*
X19015Y15393D02*
X18543Y15866D01*
X18582Y16141D02*
X18543Y15866D01*
X18582Y16141D02*
X17559Y15118D01*
X17559Y15118D02*
X17007Y15118D01*
X17007Y15118D02*
X16456Y15669D01*
X16456Y15669D02*
X16456Y16023D01*
X16456Y16023D02*
X16062Y16023D01*
X16062Y16023D02*
X16062Y14606D01*
X16062Y14606D02*
X15393Y13937D01*
X15393Y13937D02*
X14763Y13937D01*
X14763Y13937D02*
X13661Y15039D01*
X13661Y15039D02*
X12677Y15039D01*
X12677Y15039D02*
X10511Y17204D01*
X10511Y17204D02*
X10472Y18740D01*
X10708Y18976D02*
X10472Y18740D01*
X10472Y18740D02*
X10157Y18425D01*
X10511Y17204D02*
X10511Y15826D01*
X10511Y15826D02*
X9133Y14448D01*
X9133Y14448D02*
X6259Y14448D01*
X6259Y14448D02*
X5748Y14960D01*
X5748Y9370D02*
X5748Y14960D01*
X5748Y9370D02*
X6102Y9724D01*
X6102Y9724D02*
X10590Y9724D01*
X10590Y9724D02*
X11023Y9291D01*
X11023Y9291D02*
X20826Y9291D01*
X20826Y9291D02*
X22086Y8031D01*
X22086Y8031D02*
X22086Y6771D01*
X22086Y6771D02*
X23543Y5314D01*
X23543Y5314D02*
X27519Y5314D01*
X27519Y5314D02*
X24685Y8149D01*
X24685Y8149D02*
X24685Y23779D01*
X24685Y23779D02*
X24685Y23818D01*
X24685Y23818D02*
X26102Y25236D01*
X26102Y25236D02*
X21141Y25236D01*
X21141Y25236D02*
X19803Y26574D01*
X19803Y26574D02*
X19803Y22755D01*
X19803Y22755D02*
X18661Y21614D01*
X18661Y21614D02*
X19212Y21614D01*
X19212Y21614D02*
X21771Y19055D01*
X21771Y19055D02*
X21771Y15669D01*
X21771Y15669D02*
X21102Y15000D01*
X21102Y15000D02*
X18976Y15000D01*
X18976Y15000D02*
X18425Y15551D01*
X18425Y15551D02*
X17637Y14763D01*
X16299Y15433D02*
X16299Y14330D01*
X16299Y14330D02*
X15511Y13582D01*
X15511Y13582D02*
X14566Y13582D01*
X14566Y13582D02*
X13464Y14685D01*
X13464Y14685D02*
X12637Y14685D01*
X10748Y16574D02*
X10748Y15551D01*
X10748Y15551D02*
X9291Y14094D01*
X9291Y14094D02*
X6220Y14094D01*
X6220Y14094D02*
X5984Y14330D01*
D18*
X5984Y14330D02*
X5984Y10078D01*
X5984Y10078D02*
X20748Y10078D01*
X22677Y8149D02*
X22677Y7125D01*
X22677Y7125D02*
X24055Y5748D01*
X24055Y5748D02*
X26614Y5748D01*
X26614Y5748D02*
X23937Y8425D01*
X23937Y8425D02*
X23937Y23740D01*
X25157Y24960D02*
X23937Y23740D01*
X25157Y24960D02*
X20905Y24960D01*
X20905Y24960D02*
X20157Y25708D01*
X20275Y22795D02*
X20157Y25708D01*
X19566Y21889D02*
X20275Y22795D01*
X19566Y21889D02*
X22480Y18976D01*
X22480Y18976D02*
X22480Y15511D01*
X22480Y15511D02*
X21692Y14724D01*
X21692Y14724D02*
X16811Y14724D01*
D17*
X16811Y14724D02*
X17637Y14763D01*
X16811Y14724D02*
X16299Y15433D01*
D18*
X16811Y14724D02*
X16811Y14448D01*
X16811Y14448D02*
X16023Y13661D01*
X16023Y13661D02*
X13425Y13661D01*
X13425Y13661D02*
X11338Y15748D01*
D17*
X12637Y14685D02*
X11338Y15748D01*
X11338Y15748D02*
X10748Y16574D01*
D18*
X11338Y15748D02*
X9015Y13425D01*
X9015Y13425D02*
X6811Y13425D01*
X6811Y13425D02*
X6811Y11141D01*
X6811Y11141D02*
X20551Y11141D01*
X20551Y11141D02*
X20551Y10748D01*
X24803Y6496D02*
X23188Y8110D01*
X23188Y8110D02*
X23188Y24173D01*
X20905Y24173D02*
X20905Y21889D01*
X22401Y20078D02*
X20905Y21889D01*
X22401Y20078D02*
X22047Y20433D01*
X22047Y20433D02*
X22047Y23937D01*
X23188Y24173D02*
X22047Y23937D01*
X22047Y23937D02*
X20905Y24173D01*
X21692Y14724D02*
X22401Y14724D01*
X22401Y14724D02*
X22401Y9921D01*
X22401Y9921D02*
X20354Y11968D01*
X20354Y11968D02*
X7716Y11968D01*
X7716Y11968D02*
X7716Y12637D01*
X7716Y12637D02*
X9330Y12637D01*
X11299Y14606D02*
X9330Y12637D01*
X11299Y14606D02*
X13149Y12755D01*
X13149Y12755D02*
X16338Y12755D01*
X16338Y12755D02*
X17440Y13858D01*
X17440Y13858D02*
X21535Y13858D01*
X21535Y13858D02*
X21496Y13818D01*
X21496Y13818D02*
X21496Y11850D01*
X21496Y11850D02*
X20551Y12795D01*
X17362Y12795D02*
X20551Y12795D01*
X9330Y12637D02*
X9409Y12716D01*
X9409Y12716D02*
X12204Y12716D01*
X11299Y13346D02*
X12204Y12716D01*
X5708Y3188D02*
X5354Y2834D01*
X5354Y2834D02*
X2874Y2834D01*
D17*
X2322Y2637D02*
X2874Y2834D01*
X2874Y2834D02*
X4212Y2637D01*
X2598Y2913D02*
X2874Y2834D01*
X2874Y2834D02*
X4055Y2913D01*
X14370Y3307D02*
X10787Y3346D01*
X28779Y2637D02*
X28622Y1732D01*
X28779Y2637D02*
X28267Y2913D01*
X28779Y2637D02*
X28897Y2007D01*
X28779Y2637D02*
X29094Y2519D01*
D19*
X26220Y3110D02*
X26062Y2952D01*
X28622Y28622D02*
X28503Y28503D01*
X28503Y28503D02*
X25787Y28503D01*
D17*
X25551Y28385D02*
X25787Y28503D01*
X25787Y28503D02*
X26614Y29448D01*
D19*
X25433Y28937D02*
X26889Y30393D01*
X26889Y30393D02*
X28582Y30393D01*
D17*
X25984Y30472D02*
X28582Y30393D01*
X28582Y30393D02*
X30551Y30472D01*
D19*
X2834Y30196D02*
X2913Y30275D01*
X2913Y30275D02*
X5590Y30275D01*
D17*
X5590Y30275D02*
X5787Y30472D01*
X5590Y30275D02*
X6299Y29566D01*
X5629Y30511D02*
X5590Y30275D01*
X5590Y30275D02*
X5629Y29606D01*
D19*
X2874Y28503D02*
X2913Y28543D01*
X2913Y28543D02*
X5708Y28543D01*
D17*
X5000Y28385D02*
X5708Y28543D01*
D19*
X5708Y28543D02*
X5748Y28582D01*
X5748Y28582D02*
X8622Y28582D01*
D17*
X9330Y28031D02*
X8622Y28582D01*
X8622Y28582D02*
X8582Y28779D01*
X5708Y28543D02*
X8622Y28582D01*
X8622Y28582D02*
X8937Y28425D01*
D19*
X9330Y28031D02*
X6299Y28031D01*
X6299Y28031D02*
X4606Y29724D01*
X3622Y29763D02*
X4606Y29724D01*
X3622Y29763D02*
X3622Y29606D01*
X3622Y29606D02*
X4133Y29094D01*
X4566Y29133D02*
X4133Y29094D01*
D18*
X28897Y2007D02*
X27165Y2007D01*
X27165Y2007D02*
X26181Y1023D01*
D17*
X26181Y1023D02*
X30669Y1102D01*
X26181Y1023D02*
X26220Y3110D01*
D19*
X26181Y1023D02*
X26062Y2952D01*
D17*
X26181Y1023D02*
X25944Y1692D01*
D19*
X27834Y748D02*
X25629Y2952D01*
X25629Y2952D02*
X28779Y2637D01*
X25629Y2952D02*
X25393Y2244D01*
D17*
X21929Y2874D02*
X25629Y2952D01*
X25629Y2952D02*
X25866Y2874D01*
D19*
X26181Y1023D02*
X26377Y826D01*
X26377Y826D02*
X29370Y826D01*
D17*
X26181Y1023D02*
X29370Y826D01*
X29370Y826D02*
X30826Y748D01*
D19*
X30826Y748D02*
X29370Y826D01*
X29370Y826D02*
X27834Y748D01*
X10590Y9370D02*
X10669Y9448D01*
X10669Y9448D02*
X21299Y9803D01*
D18*
X20748Y10078D02*
X21299Y9803D01*
X21299Y9803D02*
X22677Y8149D01*
X20551Y10748D02*
X21299Y9803D01*
X21299Y9803D02*
X24803Y6496D01*
X24803Y6496D01*
D02*
M02*
