G04 --- HEADER BEGIN --- *
%TF.GenerationSoftware,LibrePCB,LibrePCB,0.1.0*%
%TF.CreationDate,2017-11-17T17:15:03*%
%TF.ProjectId,Dancepad - Dancepad,5234ce1f-a5e1-4fe4-82c5-c527dd5c2ef1,v1*%
%TF.Part,Single*%
%FSLAX66Y66*%
%MOMM*%
G01*
G74*
G04 --- HEADER END --- *
G04 --- APERTURE LIST BEGIN --- *
%ADD10R,1.1X1.0*%
%ADD11R,1.0X1.1*%
%ADD12P,7.0X8X22.5*%
%ADD13C,1.6256*%
%ADD14C,0.5*%
%ADD15P,2.0X8X112.5*%
%ADD16R,1.0X1.7*%
%ADD17R,0.5X1.6*%
%ADD18R,0.45X1.75*%
%ADD19P,2.54X8X22.5*%
%ADD20R,0.8X0.8*%
%ADD21P,2.0X8X292.5*%
%ADD22R,1.0X1.4*%
%ADD23P,2.0X8X22.5*%
%ADD24P,2.0X8X202.5*%
%ADD25R,0.45X1.45*%
%ADD26R,0.45X0.9*%
%ADD27P,2.0X8X-67.5*%
%ADD28C,3.8*%
%ADD29C,1.5*%
%ADD30R,1.5X1.3*%
%ADD31C,0.7*%
%ADD32C,0.3*%
%ADD33C,1.0*%
G04 --- APERTURE LIST END --- *
G04 --- BOARD BEGIN --- *
D10*
X4000000Y10850000D03*
X4000000Y9150000D03*
X74000000Y10850000D03*
X74000000Y9150000D03*
X36350000Y65500000D03*
X34650000Y65500000D03*
D11*
X77300000Y23150000D03*
X77300000Y24850000D03*
X43850000Y60000000D03*
X42150000Y60000000D03*
D12*
X69000000Y75000000D03*
D10*
X2000000Y69150000D03*
X2000000Y70850000D03*
D12*
X11000000Y5000000D03*
D10*
X76000000Y69150000D03*
X76000000Y70850000D03*
D13*
X19270000Y3000000D03*
X16730000Y3000000D03*
D10*
X23150000Y2700000D03*
X24850000Y2700000D03*
D11*
X53850000Y12900000D03*
X52150000Y12900000D03*
D14*
X50000000Y34000000D03*
D10*
X49400000Y42850000D03*
X49400000Y44550000D03*
D15*
X74730000Y51270000D03*
X74730000Y53810000D03*
X74730000Y46190000D03*
X74730000Y48730000D03*
D10*
X6000000Y10850000D03*
X6000000Y9150000D03*
D11*
X18850000Y71000000D03*
X17150000Y71000000D03*
D10*
X40000000Y24850000D03*
X40000000Y23150000D03*
D15*
X74730000Y33270000D03*
X74730000Y30730000D03*
X77270000Y33270000D03*
X77270000Y28190000D03*
X74730000Y28190000D03*
X74730000Y35810000D03*
X77270000Y35810000D03*
X77270000Y30730000D03*
D11*
X71850000Y48500000D03*
X70150000Y48500000D03*
D10*
X21000000Y52150000D03*
X21000000Y53850000D03*
D14*
X43000000Y33000000D03*
D10*
X9000000Y33850000D03*
X9000000Y32150000D03*
X76000000Y10850000D03*
X76000000Y9150000D03*
D11*
X50000000Y12850000D03*
X50000000Y14550000D03*
D10*
X74000000Y69150000D03*
X74000000Y70850000D03*
D16*
X16350000Y6000000D03*
X19650000Y6000000D03*
D17*
X4900000Y5475000D03*
X4000000Y2525000D03*
X3100000Y5475000D03*
X4900000Y2525000D03*
X4000000Y5475000D03*
X3100000Y2525000D03*
D10*
X78000000Y69150000D03*
X78000000Y70850000D03*
D17*
X76900000Y5475000D03*
X76000000Y2525000D03*
X75100000Y5475000D03*
X76900000Y2525000D03*
X76000000Y5475000D03*
X75100000Y2525000D03*
D18*
X34625000Y61600000D03*
X32675000Y54400000D03*
X32675000Y61600000D03*
X36575000Y61600000D03*
X33975000Y54400000D03*
X28775000Y61600000D03*
X30725000Y54400000D03*
X32025000Y61600000D03*
X29425000Y61600000D03*
X30075000Y54400000D03*
X33975000Y61600000D03*
X34625000Y54400000D03*
X32025000Y54400000D03*
X31375000Y61600000D03*
X37225000Y54400000D03*
X30725000Y61600000D03*
X29425000Y54400000D03*
X35275000Y54400000D03*
X35925000Y54400000D03*
X37225000Y61600000D03*
X35275000Y61600000D03*
X36575000Y54400000D03*
X33325000Y61600000D03*
X28775000Y54400000D03*
X35925000Y61600000D03*
X33325000Y54400000D03*
X30075000Y61600000D03*
X31375000Y54400000D03*
D19*
X58000000Y2000000D03*
D10*
X4000000Y69150000D03*
X4000000Y70850000D03*
D11*
X61150000Y71000000D03*
X62850000Y71000000D03*
D20*
X27250000Y40000000D03*
X28750000Y40000000D03*
D11*
X42150000Y62000000D03*
X43850000Y62000000D03*
D10*
X46000000Y34150000D03*
X46000000Y35850000D03*
D14*
X40000000Y56000000D03*
D10*
X2000000Y10850000D03*
X2000000Y9150000D03*
D11*
X43850000Y70000000D03*
X42150000Y70000000D03*
D21*
X5270000Y29270000D03*
X5270000Y24190000D03*
X5270000Y26730000D03*
X5270000Y34350000D03*
X5270000Y31810000D03*
X5270000Y21650000D03*
D13*
X60730000Y77000000D03*
X63270000Y77000000D03*
D11*
X71850000Y46000000D03*
X70150000Y46000000D03*
X71850000Y51500000D03*
X70150000Y51500000D03*
D10*
X78000000Y10850000D03*
X78000000Y9150000D03*
X23000000Y52150000D03*
X23000000Y53850000D03*
D22*
X2000000Y59100000D03*
X1050000Y56900000D03*
X2950000Y56900000D03*
D10*
X43400000Y42850000D03*
X43400000Y44550000D03*
X55700000Y6650000D03*
X55700000Y8350000D03*
D11*
X18850000Y9000000D03*
X17150000Y9000000D03*
X43850000Y64000000D03*
X42150000Y64000000D03*
D10*
X47400000Y44550000D03*
X47400000Y42850000D03*
D13*
X60730000Y3000000D03*
X63270000Y3000000D03*
D14*
X43000000Y35000000D03*
D11*
X31850000Y40000000D03*
X30150000Y40000000D03*
D10*
X25000000Y52150000D03*
X25000000Y53850000D03*
D11*
X43850000Y58000000D03*
X42150000Y58000000D03*
D10*
X6000000Y69150000D03*
X6000000Y70850000D03*
D14*
X40000000Y60000000D03*
D10*
X47000000Y6150000D03*
X47000000Y7850000D03*
X55650000Y5000000D03*
X57350000Y5000000D03*
D11*
X52150000Y14500000D03*
X53850000Y14500000D03*
D10*
X45400000Y42850000D03*
X45400000Y44550000D03*
D22*
X6000000Y59100000D03*
X5050000Y56900000D03*
X6950000Y56900000D03*
D13*
X19270000Y77000000D03*
X16730000Y77000000D03*
D11*
X45500000Y21850000D03*
X45500000Y20150000D03*
D17*
X75100000Y74525000D03*
X76000000Y77475000D03*
X76900000Y74525000D03*
X75100000Y77475000D03*
X76000000Y74525000D03*
X76900000Y77475000D03*
D14*
X40000000Y58000000D03*
D16*
X63650000Y74000000D03*
X60350000Y74000000D03*
D19*
X55000000Y2000000D03*
D11*
X43850000Y66000000D03*
X42150000Y66000000D03*
D17*
X3100000Y74525000D03*
X4000000Y77475000D03*
X4900000Y74525000D03*
X3100000Y77475000D03*
X4000000Y74525000D03*
X4900000Y77475000D03*
D14*
X43000000Y37000000D03*
D23*
X33270000Y5270000D03*
X30730000Y5270000D03*
X33270000Y2730000D03*
X28190000Y2730000D03*
X28190000Y5270000D03*
X35810000Y5270000D03*
X35810000Y2730000D03*
X30730000Y2730000D03*
D12*
X69000000Y5000000D03*
D11*
X61150000Y9000000D03*
X62850000Y9000000D03*
D24*
X33270000Y75730000D03*
X30730000Y75730000D03*
X33270000Y78270000D03*
X28190000Y78270000D03*
X28190000Y75730000D03*
X35810000Y75730000D03*
X35810000Y78270000D03*
X30730000Y78270000D03*
D25*
X46000000Y25050000D03*
X44050000Y30950000D03*
X47950000Y25050000D03*
X47300000Y30950000D03*
X45350000Y25050000D03*
X47300000Y25050000D03*
X46650000Y25050000D03*
X44700000Y30950000D03*
X46000000Y30950000D03*
X44050000Y25050000D03*
X45350000Y30950000D03*
X47950000Y30950000D03*
X44700000Y25050000D03*
X46650000Y30950000D03*
D26*
X23000000Y57050000D03*
X22350000Y58950000D03*
X23650000Y58950000D03*
X23000000Y58950000D03*
X22350000Y57050000D03*
X23650000Y57050000D03*
D16*
X63650000Y6000000D03*
X60350000Y6000000D03*
D27*
X5270000Y42730000D03*
X5270000Y45270000D03*
X2730000Y42730000D03*
X2730000Y47810000D03*
X5270000Y47810000D03*
X5270000Y40190000D03*
X2730000Y40190000D03*
X2730000Y45270000D03*
D20*
X40000000Y20250000D03*
X40000000Y21750000D03*
D12*
X11000000Y75000000D03*
D10*
X57300000Y6650000D03*
X57300000Y8350000D03*
D11*
X45150000Y10000000D03*
X46850000Y10000000D03*
X2800000Y52850000D03*
X2800000Y51150000D03*
X23000000Y62850000D03*
X23000000Y61150000D03*
X71850000Y54000000D03*
X70150000Y54000000D03*
D14*
X11000000Y22000000D03*
X48000000Y34000000D03*
D22*
X4000000Y64100000D03*
X3050000Y61900000D03*
X4950000Y61900000D03*
D28*
X39980000Y9900000D03*
D29*
X44750000Y12610000D03*
X47250000Y14610000D03*
D28*
X52020000Y9900000D03*
D29*
X44750000Y14610000D03*
X47250000Y12610000D03*
D16*
X16350000Y74000000D03*
X19650000Y74000000D03*
D10*
X45000000Y6150000D03*
X45000000Y7850000D03*
D11*
X43850000Y68000000D03*
X42150000Y68000000D03*
D30*
X50000000Y27050000D03*
X50000000Y28950000D03*
D31*
X46200000Y51200000D03*
X45100000Y65000000D03*
X47300000Y62900000D03*
X47300000Y65300000D03*
X45100000Y47500000D03*
X40700000Y42800000D03*
X36100000Y42800000D03*
X49400000Y41500000D03*
X52100000Y41500000D03*
X44400000Y56600000D03*
X42300000Y50300000D03*
X23500000Y55600000D03*
X21500000Y58900000D03*
X22000000Y55900000D03*
X30300000Y57900000D03*
X25600000Y60900000D03*
X24500000Y60100000D03*
X32700000Y59100000D03*
X21000000Y48700000D03*
X21000000Y40200000D03*
X32900000Y48700000D03*
X38100000Y39500000D03*
X40700000Y49600000D03*
X52100000Y43200000D03*
X74000000Y65300000D03*
X76000000Y67800000D03*
X76000000Y66000000D03*
X74000000Y18000000D03*
X76000000Y12200000D03*
X76400000Y17100000D03*
X66700000Y54000000D03*
X68700000Y51500000D03*
X67700000Y48500000D03*
X3500000Y12700000D03*
X5000000Y12800000D03*
X5900000Y16900000D03*
X4000000Y65900000D03*
X5000000Y67500000D03*
X6000000Y65200000D03*
X18900000Y53900000D03*
X18900000Y51900000D03*
X19700000Y52900000D03*
X27500000Y51900000D03*
X30100000Y63900000D03*
X26900000Y53900000D03*
X21000000Y16900000D03*
X20300000Y17900000D03*
X20300000Y19500000D03*
X49800000Y19500000D03*
X49800000Y17900000D03*
X48700000Y16900000D03*
X70400000Y17900000D03*
X27700000Y57000000D03*
X27700000Y61800000D03*
X30900000Y56800000D03*
X47600000Y69700000D03*
X30700000Y51900000D03*
X38100000Y38000000D03*
X38100000Y14700000D03*
X51800000Y16000000D03*
X17000000Y15600000D03*
X17000000Y20700000D03*
X24100000Y41500000D03*
X32200000Y52000000D03*
X31800000Y41700000D03*
X29000000Y46700000D03*
X34200000Y46700000D03*
X34200000Y52100000D03*
X43900000Y40800000D03*
X76000000Y23100000D03*
X77300000Y21800000D03*
X78500000Y23100000D03*
X19400000Y39000000D03*
X28900000Y65300000D03*
X17700000Y39100000D03*
X27900000Y66300000D03*
X16400000Y39300000D03*
X16000000Y55000000D03*
X19700000Y55000000D03*
X26400000Y55700000D03*
X55700000Y10000000D03*
X54500000Y8400000D03*
X55100000Y12900000D03*
X54900000Y11500000D03*
X46000000Y6100000D03*
X45000000Y5000000D03*
X47000000Y5000000D03*
X48200000Y6100000D03*
X43800000Y6100000D03*
X55100000Y14500000D03*
X53800000Y15700000D03*
X37400000Y69300000D03*
X35700000Y67100000D03*
X19300000Y20500000D03*
X36800000Y11700000D03*
X26800000Y64000000D03*
X26800000Y69600000D03*
X32900000Y56800000D03*
X47400000Y68200000D03*
X45600000Y74000000D03*
X23100000Y4000000D03*
X21800000Y2700000D03*
X12900000Y32100000D03*
X13700000Y32100000D03*
X16600000Y69300000D03*
X1900000Y52900000D03*
X2800000Y53800000D03*
X3700000Y52900000D03*
X8200000Y56900000D03*
X5100000Y63000000D03*
X3100000Y58000000D03*
X65000000Y24900000D03*
X63800000Y24900000D03*
X62600000Y24900000D03*
X24800000Y23400000D03*
X24800000Y22500000D03*
X24800000Y24300000D03*
X12800000Y50400000D03*
X13700000Y50400000D03*
X14600000Y50400000D03*
X9100000Y66500000D03*
X9100000Y67300000D03*
X69500000Y64900000D03*
X69500000Y65700000D03*
X69500000Y66500000D03*
X70900000Y13300000D03*
X70900000Y12500000D03*
X70900000Y11700000D03*
X9100000Y65700000D03*
X11000000Y15700000D03*
X10400000Y15100000D03*
X9800000Y14500000D03*
X56000000Y15800000D03*
X56600000Y15200000D03*
X57200000Y14600000D03*
X51300000Y29000000D03*
X52100000Y29000000D03*
X47400000Y35800000D03*
X46000000Y37100000D03*
X23500000Y66100000D03*
X24000000Y66600000D03*
X24500000Y67100000D03*
X64300000Y46000000D03*
X65100000Y46000000D03*
D32*
X32025000Y66675000D02*
X30700000Y68000000D01*
X30700000Y68000000D02*
X30700000Y75700000D01*
X30700000Y75700000D02*
X30730000Y75730000D01*
X31375000Y66325000D02*
X28200000Y69500000D01*
X28200000Y69500000D02*
X28200000Y75700000D01*
X28200000Y75700000D02*
X28190000Y75730000D01*
X32675000Y66675000D02*
X33300000Y67300000D01*
X33300000Y67300000D02*
X33300000Y75700000D01*
X33300000Y75700000D02*
X33270000Y75730000D01*
X33325000Y66325000D02*
X35800000Y68800000D01*
X35800000Y68800000D02*
X35800000Y75700000D01*
X35800000Y75700000D02*
X35810000Y75730000D01*
X41800000Y61600000D02*
X41800000Y61600000D01*
X42150000Y60000000D02*
X42150000Y58000000D01*
X42150000Y62000000D02*
X41800000Y61600000D01*
X42150000Y62000000D02*
X42150000Y60000000D01*
X42150000Y62000000D02*
X42150000Y64000000D01*
X43850000Y64000000D02*
X47700000Y64000000D01*
X74700000Y28200000D02*
X74730000Y28190000D01*
X43850000Y60000000D02*
X45300000Y58550000D01*
X45300000Y58550000D02*
X45300000Y50000000D01*
X45300000Y50000000D02*
X28100000Y32800000D01*
X28100000Y32800000D02*
X28190000Y5270000D01*
X41100000Y47800000D02*
X5300000Y47800000D01*
X5300000Y47800000D02*
X5270000Y47810000D01*
X36575000Y62875000D02*
X39700000Y66000000D01*
X39700000Y66000000D02*
X39700000Y66000000D01*
X39700000Y66000000D02*
X42150000Y66000000D01*
X42150000Y68000000D02*
X42150000Y66000000D01*
X42150000Y70000000D02*
X42150000Y68000000D01*
X51200000Y40700000D02*
X61200000Y30700000D01*
X61200000Y30700000D02*
X61200000Y30700000D01*
X61200000Y30700000D02*
X74700000Y30700000D01*
X74700000Y30700000D02*
X74730000Y30730000D01*
X30730000Y5270000D02*
X30730000Y34430000D01*
X30730000Y34430000D02*
X30800000Y34500000D01*
X30800000Y34500000D02*
X47300000Y51000000D01*
X47300000Y51000000D02*
X47300000Y62900000D01*
X43850000Y68000000D02*
X44600000Y68000000D01*
X44600000Y68000000D02*
X47300000Y65300000D01*
X39600000Y45300000D02*
X5300000Y45200000D01*
X5300000Y45200000D02*
X5300000Y45200000D01*
X5300000Y45200000D02*
X5270000Y45270000D01*
X47400000Y44550000D02*
X49400000Y44550000D01*
X45100000Y47500000D02*
X45100000Y44700000D01*
X45100000Y44700000D02*
X45400000Y44550000D01*
X45400000Y44550000D02*
X43400000Y44550000D01*
X45400000Y44550000D02*
X47400000Y44550000D01*
X43400000Y42850000D02*
X43350000Y42800000D01*
X43350000Y42800000D02*
X40700000Y42800000D01*
X5300000Y42800000D02*
X36100000Y42800000D01*
X5300000Y42800000D02*
X5270000Y42730000D01*
X45400000Y42850000D02*
X44350000Y41800000D01*
X44350000Y41800000D02*
X39100000Y41800000D01*
X39100000Y41800000D02*
X39100000Y41800000D01*
X39100000Y41800000D02*
X33100000Y35800000D01*
X33100000Y35800000D02*
X33200000Y5300000D01*
X33200000Y5300000D02*
X33270000Y5270000D01*
X47400000Y42850000D02*
X47250000Y42850000D01*
X47250000Y42850000D02*
X42000000Y37600000D01*
X42000000Y37600000D02*
X42000000Y30700000D01*
X42000000Y30700000D02*
X45300000Y27400000D01*
X45300000Y25100000D02*
X45300000Y27400000D01*
X45350000Y25050000D02*
X45300000Y25100000D01*
X49400000Y42800000D02*
X49400000Y41500000D01*
X49400000Y42800000D02*
X49400000Y42850000D01*
X43850000Y62000000D02*
X46200000Y59650000D01*
X46200000Y59650000D02*
X46200000Y51200000D01*
X43850000Y58000000D02*
X43500000Y57650000D01*
X43500000Y57650000D02*
X43500000Y50200000D01*
X43500000Y50200000D02*
X41100000Y47800000D01*
X39600000Y45300000D02*
X44400000Y50100000D01*
X44400000Y50100000D02*
X44400000Y56600000D01*
X42300000Y50300000D02*
X38200000Y54400000D01*
X21000000Y53850000D02*
X21000000Y58400000D01*
X21000000Y58400000D02*
X21500000Y58900000D01*
X22300000Y58900000D02*
X21500000Y58900000D01*
X22350000Y58950000D02*
X22300000Y58900000D01*
X25000000Y53850000D02*
X25000000Y55500000D01*
X23600000Y56900000D02*
X23600000Y56900000D01*
X23600000Y56900000D02*
X23650000Y57050000D01*
X23000000Y57050000D02*
X23000000Y56100000D01*
X23000000Y56100000D02*
X23500000Y55600000D01*
X23000000Y61150000D02*
X23000000Y58950000D01*
X24500000Y60100000D02*
X25100000Y59500000D01*
X34700000Y59500000D02*
X34700000Y59500000D01*
X30725000Y60525000D02*
X30400000Y60200000D01*
X30400000Y60200000D02*
X26300000Y60200000D01*
X26300000Y60200000D02*
X25600000Y60900000D01*
X23650000Y58950000D02*
X23600000Y58800000D01*
X23600000Y58800000D02*
X25400000Y58800000D01*
X30700000Y58800000D02*
X25400000Y58800000D01*
X35300000Y59100000D02*
X32700000Y59100000D01*
X35300000Y59100000D02*
X35925000Y59725000D01*
X30300000Y57900000D02*
X26200000Y57900000D01*
X26200000Y57900000D02*
X24400000Y56100000D01*
X25000000Y55500000D02*
X24400000Y56100000D01*
X24400000Y56100000D02*
X23600000Y56900000D01*
X21000000Y48700000D02*
X21000000Y52150000D01*
X21000000Y40200000D02*
X21000000Y40200000D01*
X21000000Y40200000D02*
X5300000Y40200000D01*
X5300000Y40200000D02*
X5270000Y40190000D01*
X23000000Y52150000D02*
X26450000Y48700000D01*
X26450000Y48700000D02*
X32900000Y48700000D01*
X38100000Y39500000D02*
X35800000Y37200000D01*
X35810000Y5270000D02*
X35800000Y5280000D01*
X35800000Y5280000D02*
X35800000Y5300000D01*
X35800000Y5300000D02*
X35800000Y37200000D01*
X25000000Y52150000D02*
X27550000Y49600000D01*
X27550000Y49600000D02*
X40700000Y49600000D01*
X47700000Y64000000D02*
X50500000Y61200000D01*
X50500000Y61200000D02*
X50500000Y40400000D01*
X50500000Y40400000D02*
X62700000Y28200000D01*
X62700000Y28200000D02*
X62700000Y28200000D01*
X62700000Y28200000D02*
X74700000Y28200000D01*
X43850000Y70000000D02*
X51200000Y62650000D01*
X51200000Y62650000D02*
X51200000Y62500000D01*
X51200000Y62500000D02*
X51200000Y40700000D01*
X52100000Y41500000D02*
X60400000Y33200000D01*
X60400000Y33200000D02*
X74700000Y33200000D01*
X74700000Y33200000D02*
X74730000Y33270000D01*
X74730000Y35810000D02*
X74720000Y35800000D01*
X74720000Y35800000D02*
X74700000Y35800000D01*
X74700000Y35800000D02*
X59500000Y35800000D01*
X59500000Y35800000D02*
X52100000Y43200000D01*
X3100000Y72000000D02*
X2000000Y70850000D01*
X4900000Y71900000D02*
X6000000Y70850000D01*
X75100000Y74525000D02*
X75100000Y72000000D01*
X75100000Y72000000D02*
X74000000Y70850000D01*
X76000000Y70850000D02*
X76000000Y74525000D01*
X76900000Y74525000D02*
X76900000Y71900000D01*
X76900000Y71900000D02*
X78000000Y70850000D01*
X76000000Y9150000D02*
X76000000Y5475000D01*
X75100000Y5475000D02*
X75100000Y8100000D01*
X75100000Y8100000D02*
X74000000Y9150000D01*
X76900000Y5475000D02*
X76900000Y7900000D01*
X76900000Y7900000D02*
X78000000Y9150000D01*
X4000000Y7900000D02*
X4000000Y9150000D01*
X4900000Y8200000D02*
X6000000Y9150000D01*
X3100000Y8000000D02*
X2000000Y9150000D01*
X19270000Y3000000D02*
X19270000Y5570000D01*
X19270000Y5570000D02*
X19650000Y6000000D01*
X19650000Y6000000D02*
X19650000Y8150000D01*
X19650000Y8150000D02*
X18850000Y9000000D01*
X60730000Y3000000D02*
X60730000Y5770000D01*
X60730000Y5770000D02*
X60350000Y6000000D01*
X60350000Y6000000D02*
X60350000Y8350000D01*
X60350000Y8350000D02*
X61150000Y9000000D01*
X60350000Y71850000D02*
X61150000Y71000000D01*
X60730000Y77000000D02*
X60730000Y74430000D01*
X60730000Y74430000D02*
X60350000Y74000000D01*
X60350000Y74000000D02*
X60350000Y71850000D01*
X19270000Y77000000D02*
X19270000Y74330000D01*
X19270000Y74330000D02*
X19650000Y74000000D01*
X19650000Y74000000D02*
X19650000Y71750000D01*
X19650000Y71750000D02*
X18850000Y71000000D01*
X74730000Y46190000D02*
X71890000Y46190000D01*
X71890000Y46190000D02*
X71850000Y46000000D01*
X74730000Y53810000D02*
X71890000Y53810000D01*
X71890000Y53810000D02*
X71850000Y54000000D01*
X74730000Y51270000D02*
X71930000Y51270000D01*
X71930000Y51270000D02*
X71850000Y51500000D01*
X74730000Y48730000D02*
X71830000Y48730000D01*
X71830000Y48730000D02*
X71850000Y48500000D01*
X78000000Y68800000D02*
X78000000Y69150000D01*
X76000000Y67800000D02*
X76000000Y69150000D01*
X74000000Y68800000D02*
X74000000Y69150000D01*
X76000000Y12200000D02*
X76000000Y10850000D01*
X74000000Y68800000D02*
X74000000Y65300000D01*
X66800000Y54000000D02*
X70150000Y54000000D01*
X68700000Y51500000D02*
X70150000Y51500000D01*
X67700000Y48500000D02*
X70150000Y48500000D01*
X5900000Y16900000D02*
X6000000Y10850000D01*
X44750000Y12610000D02*
X46000000Y13960000D01*
X46000000Y13960000D02*
X46000000Y16400000D01*
X46000000Y16400000D02*
X47300000Y17700000D01*
X47300000Y17700000D02*
X47300000Y25050000D01*
X44750000Y14610000D02*
X44750000Y16150000D01*
X44750000Y16150000D02*
X46600000Y18000000D01*
X46600000Y25000000D02*
X46600000Y18000000D01*
X46600000Y25000000D02*
X46650000Y25050000D01*
X6000000Y65200000D02*
X6000000Y59100000D01*
X6000000Y65200000D02*
X6000000Y69150000D01*
X3050000Y61900000D02*
X4000000Y60950000D01*
X4000000Y60950000D02*
X4000000Y56100000D01*
X4000000Y56100000D02*
X7200000Y52900000D01*
X7200000Y52900000D02*
X19700000Y52900000D01*
X5050000Y56900000D02*
X8050000Y53900000D01*
X8050000Y53900000D02*
X18900000Y53900000D01*
X1050000Y56900000D02*
X6050000Y51900000D01*
X6050000Y51900000D02*
X18900000Y51900000D01*
X30100000Y61600000D02*
X30100000Y63900000D01*
X27500000Y51900000D02*
X29100000Y50300000D01*
X29100000Y50300000D02*
X29100000Y50300000D01*
X29100000Y50300000D02*
X35600000Y50300000D01*
X35600000Y50300000D02*
X36600000Y51300000D01*
X36600000Y54400000D02*
X36600000Y51300000D01*
X26900000Y53900000D02*
X29800000Y51000000D01*
X29800000Y51000000D02*
X31600000Y51000000D01*
X31600000Y51000000D02*
X35300000Y51000000D01*
X35300000Y51000000D02*
X35900000Y51600000D01*
X35900000Y54400000D02*
X35900000Y51600000D01*
X40000000Y60000000D02*
X37200000Y60000000D01*
X37200000Y60000000D02*
X34000000Y56800000D01*
X34000000Y56800000D02*
X34000000Y54400000D01*
X40000000Y58000000D02*
X36200000Y58000000D01*
X36200000Y58000000D02*
X34600000Y56400000D01*
X34600000Y56400000D02*
X34600000Y56400000D01*
X34600000Y56400000D02*
X34600000Y54300000D01*
X34600000Y54300000D02*
X34600000Y54300000D01*
X40000000Y56000000D02*
X35700000Y56000000D01*
X35700000Y56000000D02*
X35300000Y55600000D01*
X35300000Y54400000D02*
X35300000Y55600000D01*
X21000000Y16900000D02*
X5900000Y16900000D01*
X5000000Y17400000D02*
X5500000Y17900000D01*
X5500000Y17900000D02*
X5500000Y17900000D01*
X5500000Y17900000D02*
X20400000Y17900000D01*
X3500000Y16900000D02*
X6100000Y19500000D01*
X6100000Y19500000D02*
X6100000Y19500000D01*
X6100000Y19500000D02*
X20400000Y19500000D01*
X49800000Y19500000D02*
X72500000Y19500000D01*
X72500000Y19500000D02*
X74000000Y18000000D01*
X74000000Y18000000D02*
X74000000Y10850000D01*
X48700000Y16900000D02*
X48700000Y19700000D01*
X48700000Y19700000D02*
X49600000Y20600000D01*
X49600000Y20600000D02*
X72800000Y20600000D01*
X72800000Y20600000D02*
X76200000Y17200000D01*
X70400000Y17900000D02*
X49800000Y17900000D01*
D33*
X50000000Y12850000D02*
X52150000Y12900000D01*
X50000000Y14550000D02*
X52150000Y14500000D01*
X49800000Y12600000D02*
X50000000Y12850000D01*
X47250000Y12610000D02*
X49800000Y12600000D01*
X49900000Y14600000D02*
X50000000Y14550000D01*
X47250000Y14610000D02*
X49900000Y14600000D01*
X55000000Y2000000D02*
X55000000Y4400000D01*
X58000000Y2000000D02*
X58000000Y4400000D01*
X55700000Y5000000D02*
X55700000Y6650000D01*
X55650000Y5000000D02*
X55700000Y5000000D01*
X55650000Y5000000D02*
X55000000Y4400000D01*
X57300000Y5000000D02*
X57300000Y6650000D01*
X57350000Y5000000D02*
X57300000Y5000000D01*
X57350000Y5000000D02*
X58000000Y4400000D01*
X9000000Y33850000D02*
X8600000Y34300000D01*
X5300000Y34300000D02*
X8600000Y34300000D01*
X5270000Y34350000D02*
X5300000Y34300000D01*
D32*
X11000000Y22000000D02*
X10100000Y22000000D01*
X10100000Y22000000D02*
X9700000Y21600000D01*
X5270000Y21650000D02*
X5320000Y21600000D01*
X5320000Y21600000D02*
X5300000Y21600000D01*
X5300000Y21600000D02*
X9700000Y21600000D01*
D33*
X77270000Y30730000D02*
X77300000Y30700000D01*
X2730000Y47810000D02*
X2800000Y47800000D01*
X2730000Y47810000D02*
X2730000Y45270000D01*
X77270000Y28190000D02*
X77300000Y28200000D01*
X77270000Y28190000D02*
X77300000Y30700000D01*
X28190000Y2730000D02*
X28200000Y2700000D01*
X28190000Y2730000D02*
X30730000Y2730000D01*
D32*
X46000000Y34150000D02*
X46000000Y30950000D01*
X46000000Y25050000D02*
X46000000Y23600000D01*
X46000000Y23600000D02*
X45600000Y23200000D01*
X45600000Y22000000D02*
X45600000Y23200000D01*
X45600000Y22000000D02*
X45700000Y22100000D01*
X45700000Y22100000D02*
X45500000Y21850000D01*
X48600000Y25600000D02*
X48000000Y25600000D01*
X48000000Y25600000D02*
X47950000Y25050000D01*
X48500000Y30400000D02*
X48500000Y30400000D01*
X48500000Y30400000D02*
X47900000Y30400000D01*
X47900000Y30400000D02*
X47900000Y30400000D01*
X47900000Y30400000D02*
X47950000Y30950000D01*
X47300000Y30950000D02*
X47300000Y32000000D01*
X47300000Y32000000D02*
X49300000Y34000000D01*
X49300000Y34000000D02*
X49300000Y34000000D01*
X49300000Y34000000D02*
X50000000Y34000000D01*
X46650000Y30950000D02*
X46650000Y32650000D01*
X46650000Y32650000D02*
X46700000Y32700000D01*
X46700000Y32700000D02*
X46700000Y32700000D01*
X46700000Y32700000D02*
X48000000Y34000000D01*
X44050000Y30950000D02*
X44050000Y31350000D01*
X44050000Y31350000D02*
X43000000Y32400000D01*
X43000000Y33000000D02*
X43000000Y32400000D01*
X43000000Y35000000D02*
X43000000Y34200000D01*
X43000000Y34200000D02*
X44200000Y33000000D01*
X44200000Y33000000D02*
X44700000Y32500000D01*
X44700000Y32500000D02*
X44700000Y30950000D01*
X45350000Y30950000D02*
X45350000Y32850000D01*
X45350000Y32850000D02*
X44200000Y34000000D01*
X44200000Y34000000D02*
X44200000Y35800000D01*
X44200000Y35800000D02*
X43000000Y37000000D01*
X29425000Y56275000D02*
X28700000Y57000000D01*
X27800000Y57000000D02*
X28700000Y57000000D01*
X27700000Y61800000D02*
X27700000Y61800000D01*
X27700000Y61800000D02*
X26300000Y61800000D01*
X17150000Y71000000D02*
X26300000Y61800000D01*
X30075000Y55975000D02*
X30900000Y56800000D01*
X47600000Y69700000D02*
X61600000Y69700000D01*
X61600000Y69700000D02*
X62850000Y71000000D01*
X30700000Y54400000D02*
X30700000Y51900000D01*
X38100000Y14700000D02*
X38100000Y38000000D01*
X17150000Y9000000D02*
X17000000Y9150000D01*
X17000000Y9150000D02*
X17000000Y15600000D01*
X17000000Y20700000D02*
X17000000Y34400000D01*
X17000000Y34400000D02*
X24100000Y41500000D01*
X32200000Y52000000D02*
X31400000Y52800000D01*
X31400000Y52800000D02*
X31400000Y54400000D01*
X31400000Y54400000D02*
X31400000Y54500000D01*
X28750000Y40000000D02*
X30100000Y40000000D01*
X30100000Y40000000D02*
X30100000Y40000000D01*
X30100000Y40000000D02*
X30150000Y40000000D01*
X30150000Y40000000D02*
X30050000Y39900000D01*
X31850000Y40000000D02*
X31800000Y40050000D01*
X31800000Y40050000D02*
X31800000Y41700000D01*
X34200000Y46700000D02*
X29000000Y46700000D01*
X32025000Y53175000D02*
X32300000Y52900000D01*
X32300000Y52900000D02*
X33400000Y52900000D01*
X33400000Y52900000D02*
X34200000Y52100000D01*
X44700000Y25050000D02*
X44700000Y27000000D01*
X44700000Y27000000D02*
X44700000Y27000000D01*
X44700000Y27000000D02*
X41200000Y30500000D01*
X41200000Y30500000D02*
X41200000Y30500000D01*
X41200000Y30500000D02*
X41200000Y38100000D01*
X41200000Y38100000D02*
X43900000Y40800000D01*
X40000000Y23150000D02*
X40000000Y21750000D01*
X4000000Y5475000D02*
X4000000Y7900000D01*
X3100000Y5475000D02*
X3100000Y8000000D01*
X4900000Y5475000D02*
X4900000Y8200000D01*
X4900000Y2525000D02*
X4900000Y3200000D01*
X78000000Y68800000D02*
X78000000Y68000000D01*
X78000000Y68000000D02*
X76000000Y66000000D01*
X78000000Y10850000D02*
X78000000Y15400000D01*
X78000000Y15400000D02*
X76400000Y17100000D01*
X76400000Y17100000D02*
X76200000Y17200000D01*
X4000000Y10850000D02*
X5000000Y11850000D01*
X5000000Y11850000D02*
X5000000Y12800000D01*
X5000000Y12800000D02*
X5000000Y17400000D01*
X3500000Y12700000D02*
X3500000Y16900000D01*
X4000000Y69150000D02*
X5000000Y68150000D01*
X4000000Y64100000D02*
X5000000Y65100000D01*
X5000000Y65100000D02*
X5000000Y67500000D01*
X5000000Y67500000D02*
X5000000Y68150000D01*
X2000000Y69150000D02*
X4000000Y67150000D01*
X4000000Y67150000D02*
X4000000Y65900000D01*
X4000000Y65900000D02*
X2900000Y65900000D01*
X2900000Y65900000D02*
X2000000Y65000000D01*
X2000000Y59100000D02*
X2000000Y65000000D01*
X5270000Y24190000D02*
X14490000Y24190000D01*
X14490000Y24190000D02*
X16200000Y25900000D01*
X16200000Y25900000D02*
X16200000Y35800000D01*
X16200000Y35800000D02*
X19400000Y39000000D01*
X29425000Y62875000D02*
X28900000Y63400000D01*
X28900000Y65300000D02*
X28900000Y63400000D01*
X5270000Y26730000D02*
X14730000Y26730000D01*
X14730000Y26730000D02*
X15300000Y27300000D01*
X15300000Y27300000D02*
X15400000Y27400000D01*
X15400000Y27400000D02*
X15400000Y35200000D01*
X15400000Y35200000D02*
X15400000Y36800000D01*
X15400000Y36800000D02*
X17700000Y39100000D01*
X28775000Y62225000D02*
X27900000Y63100000D01*
X27900000Y66300000D02*
X27900000Y63100000D01*
X9000000Y33850000D02*
X10750000Y33850000D01*
X10750000Y33850000D02*
X13650000Y33850000D01*
X13650000Y33850000D02*
X14600000Y34800000D01*
X14600000Y34800000D02*
X14600000Y37500000D01*
X14600000Y37500000D02*
X16400000Y39300000D01*
X19700000Y55000000D02*
X16000000Y55000000D01*
X26400000Y55700000D02*
X28200000Y55700000D01*
X28200000Y55700000D02*
X28500000Y55400000D01*
X28500000Y55400000D02*
X28800000Y55100000D01*
X23000000Y53850000D02*
X22000000Y54850000D01*
X22000000Y54850000D02*
X22000000Y55900000D01*
X22000000Y56600000D02*
X22000000Y55900000D01*
X22000000Y56600000D02*
X22300000Y56900000D01*
X22300000Y56900000D02*
X22300000Y56900000D01*
X22300000Y56900000D02*
X22350000Y57050000D01*
D14*
X55700000Y8400000D02*
X54500000Y8400000D01*
X55700000Y8350000D02*
X55700000Y9900000D01*
X55700000Y8350000D02*
X55700000Y8400000D01*
X54900000Y11500000D02*
X53900000Y12500000D01*
X53900000Y12500000D02*
X53850000Y12900000D01*
X53850000Y12900000D02*
X55100000Y12900000D01*
X45000000Y6100000D02*
X46000000Y6100000D01*
X45000000Y6150000D02*
X45000000Y6100000D01*
X45000000Y6150000D02*
X43800000Y6100000D01*
X45000000Y6150000D02*
X45000000Y5000000D01*
X47000000Y6100000D02*
X46000000Y6100000D01*
X47000000Y6150000D02*
X48200000Y6100000D01*
X47000000Y6150000D02*
X47000000Y5000000D01*
X47000000Y6150000D02*
X47000000Y6100000D01*
D32*
X51800000Y16000000D02*
X52900000Y17100000D01*
X52900000Y17100000D02*
X55000000Y17100000D01*
X55000000Y17100000D02*
X56500000Y17100000D01*
X56500000Y17100000D02*
X59700000Y13900000D01*
X59700000Y13900000D02*
X61100000Y12500000D01*
X61100000Y9100000D02*
X61100000Y12500000D01*
D14*
X53800000Y15700000D02*
X53800000Y14500000D01*
X53800000Y14500000D02*
X53850000Y14500000D01*
X53850000Y14500000D02*
X55100000Y14500000D01*
X37400000Y69300000D02*
X37400000Y66500000D01*
D32*
X36400000Y65500000D02*
X34625000Y63725000D01*
X36350000Y65500000D02*
X36400000Y65500000D01*
D14*
X36350000Y65500000D02*
X37400000Y66500000D01*
X35700000Y67100000D02*
X35000000Y66400000D01*
X35000000Y66400000D02*
X35000000Y66000000D01*
X34600000Y65700000D02*
X34650000Y65500000D01*
D32*
X34650000Y65500000D02*
X33975000Y64875000D01*
D14*
X35000000Y66000000D02*
X34650000Y65500000D01*
X34650000Y65500000D02*
X34600000Y65700000D01*
D32*
X40000000Y24850000D02*
X40000000Y25000000D01*
X40000000Y25000000D02*
X44100000Y25000000D01*
X44100000Y25000000D02*
X44050000Y25050000D01*
X19300000Y20500000D02*
X19300000Y32100000D01*
X19300000Y32100000D02*
X27250000Y40000000D01*
D14*
X26800000Y64000000D02*
X26800000Y69600000D01*
D32*
X32675000Y55625000D02*
X31900000Y56400000D01*
X31900000Y56400000D02*
X31900000Y56500000D01*
X31900000Y56500000D02*
X31900000Y57100000D01*
X31900000Y57100000D02*
X31900000Y57600000D01*
X31900000Y57600000D02*
X31500000Y58000000D01*
X30700000Y58800000D02*
X31500000Y58000000D01*
X25100000Y59500000D02*
X30900000Y59500000D01*
X30900000Y59500000D02*
X31500000Y60100000D01*
X31500000Y60100000D02*
X34900000Y60100000D01*
X34900000Y60100000D02*
X35300000Y60500000D01*
X35300000Y60500000D02*
X35300000Y61600000D01*
X31400000Y54500000D02*
X31375000Y54400000D01*
X30075000Y61600000D02*
X30100000Y61600000D01*
X33325000Y54400000D02*
X33325000Y56375000D01*
X35925000Y61600000D02*
X35925000Y59725000D01*
X28800000Y55100000D02*
X28775000Y54400000D01*
X33325000Y61600000D02*
X33325000Y66325000D01*
X36575000Y54400000D02*
X36600000Y54400000D01*
X35300000Y61600000D02*
X35275000Y61600000D01*
X37225000Y61600000D02*
X41800000Y61600000D01*
X35925000Y54400000D02*
X35900000Y54400000D01*
X35275000Y54400000D02*
X35300000Y54400000D01*
X29425000Y54400000D02*
X29425000Y56275000D01*
X30725000Y61600000D02*
X30725000Y60525000D01*
X38200000Y54400000D02*
X37225000Y54400000D01*
X31375000Y61600000D02*
X31375000Y66325000D01*
X32025000Y54400000D02*
X32025000Y53175000D01*
X34600000Y54300000D02*
X34625000Y54400000D01*
X33975000Y61600000D02*
X33975000Y64875000D01*
X30075000Y54400000D02*
X30075000Y55975000D01*
X29425000Y61600000D02*
X29425000Y62875000D01*
X32025000Y61600000D02*
X32025000Y66675000D01*
X30725000Y54400000D02*
X30700000Y54400000D01*
X28775000Y61600000D02*
X28775000Y62225000D01*
X34000000Y54400000D02*
X33975000Y54400000D01*
X36575000Y61600000D02*
X36575000Y62875000D01*
X32675000Y61600000D02*
X32675000Y66675000D01*
X32675000Y54400000D02*
X32675000Y55625000D01*
X34625000Y61600000D02*
X34625000Y63725000D01*
X33325000Y56375000D02*
X32900000Y56800000D01*
X43850000Y66000000D02*
X44000000Y66000000D01*
X44000000Y66000000D02*
X44900000Y65000000D01*
X45100000Y65000000D02*
X44900000Y65000000D01*
D14*
X47400000Y68200000D02*
X45600000Y70000000D01*
X45600000Y70000000D02*
X45600000Y74000000D01*
X40000000Y14900000D02*
X36800000Y11700000D01*
X45500000Y20150000D02*
X44150000Y18800000D01*
X44150000Y18800000D02*
X40000000Y18800000D01*
X40000000Y20250000D02*
X40000000Y18800000D01*
X40000000Y18800000D02*
X40000000Y14900000D01*
X23100000Y2700000D02*
X21800000Y2700000D01*
X23100000Y2700000D02*
X23100000Y4000000D01*
X23150000Y2700000D02*
X23100000Y2700000D01*
X23150000Y2700000D02*
X23100000Y2700000D01*
D33*
X8600000Y31800000D02*
X5270000Y31810000D01*
X9000000Y32150000D02*
X13700000Y32100000D01*
X9000000Y32150000D02*
X8600000Y31800000D01*
D14*
X23000000Y62850000D02*
X23000000Y62900000D01*
X23000000Y62900000D02*
X16600000Y69300000D01*
X2800000Y52900000D02*
X3700000Y52900000D01*
X2800000Y52900000D02*
X1900000Y52900000D01*
X2800000Y52850000D02*
X2800000Y52900000D01*
X2800000Y52850000D02*
X2800000Y53800000D01*
X2800000Y52850000D02*
X2800000Y52900000D01*
X7000000Y56900000D02*
X8200000Y56900000D01*
X6950000Y56900000D02*
X7000000Y56900000D01*
X5100000Y61900000D02*
X5100000Y63000000D01*
X5100000Y61900000D02*
X5100000Y61900000D01*
X5100000Y61900000D02*
X5000000Y61900000D01*
X3100000Y58000000D02*
X3100000Y56700000D01*
X3000000Y56700000D02*
X3100000Y56700000D01*
D32*
X77300000Y21800000D02*
X77300000Y22800000D01*
X77200000Y23100000D02*
X78500000Y23100000D01*
X77200000Y23100000D02*
X76000000Y23100000D01*
X77300000Y23150000D02*
X77300000Y22800000D01*
X77300000Y23150000D02*
X77200000Y23100000D01*
X77300000Y23150000D02*
X77200000Y23100000D01*
X78500000Y23100000D02*
X78300000Y23100000D01*
D33*
X77300000Y24850000D02*
X77300000Y26600000D01*
X77300000Y26600000D02*
X77300000Y28200000D01*
X24850000Y2700000D02*
X28200000Y2700000D01*
X2800000Y51150000D02*
X2800000Y47800000D01*
D32*
X4000000Y70850000D02*
X4000000Y74525000D01*
X4900000Y74525000D02*
X4900000Y71900000D01*
X3100000Y74525000D02*
X3100000Y72000000D01*
X16700000Y76500000D02*
X16730000Y77000000D01*
X16700000Y76500000D02*
X16700000Y74300000D01*
X16700000Y74300000D02*
X16350000Y74000000D01*
X63650000Y74000000D02*
X63300000Y74350000D01*
X63300000Y74350000D02*
X63300000Y76900000D01*
X63300000Y76900000D02*
X63270000Y77000000D01*
X16350000Y6000000D02*
X16700000Y5650000D01*
X16700000Y5650000D02*
X16700000Y3100000D01*
X16700000Y3100000D02*
X16800000Y3000000D01*
X16800000Y3000000D02*
X16730000Y3000000D01*
X63650000Y6000000D02*
X63300000Y5650000D01*
X63300000Y5650000D02*
X63300000Y3100000D01*
X63300000Y3100000D02*
X63270000Y3000000D01*
D33*
X3100000Y77475000D02*
X5825000Y77475000D01*
X5825000Y77475000D02*
X6500000Y76800000D01*
X6500000Y76800000D02*
X6500000Y72900000D01*
X6500000Y72900000D02*
X9100000Y70300000D01*
X9100000Y65700000D02*
X9100000Y70300000D01*
D32*
X3500000Y12700000D02*
X2800000Y12000000D01*
X2400000Y11600000D02*
X2800000Y12000000D01*
X2400000Y11600000D02*
X2400000Y11200000D01*
X2400000Y11200000D02*
X2000000Y10850000D01*
D33*
X76900000Y77475000D02*
X74075000Y77475000D01*
X74075000Y77475000D02*
X73400000Y76800000D01*
X73400000Y76800000D02*
X73400000Y73000000D01*
X73400000Y73000000D02*
X70800000Y70400000D01*
X70800000Y70400000D02*
X69500000Y69100000D01*
X69500000Y69100000D02*
X69500000Y64900000D01*
X76900000Y2525000D02*
X74175000Y2525000D01*
X74175000Y2525000D02*
X73400000Y3300000D01*
X73400000Y3300000D02*
X73400000Y7000000D01*
X73400000Y7000000D02*
X70900000Y9500000D01*
X70900000Y13400000D02*
X70900000Y9500000D01*
X3100000Y2525000D02*
X5525000Y2525000D01*
X5525000Y2525000D02*
X6600000Y3600000D01*
X6600000Y3600000D02*
X6600000Y7000000D01*
X6600000Y7000000D02*
X8400000Y8800000D01*
X8400000Y8800000D02*
X8400000Y13100000D01*
X8400000Y13100000D02*
X11000000Y15700000D01*
X57300000Y8350000D02*
X57300000Y14500000D01*
X57300000Y14500000D02*
X56000000Y15800000D01*
X76000000Y23100000D02*
X54100000Y23100000D01*
X54100000Y23100000D02*
X50000000Y27050000D01*
D32*
X50000000Y27050000D02*
X48600000Y25600000D01*
D33*
X77300000Y24850000D02*
X62550000Y24850000D01*
D32*
X50000000Y28950000D02*
X48500000Y30400000D01*
D33*
X2800000Y51150000D02*
X4550000Y51150000D01*
X4550000Y51150000D02*
X5300000Y50400000D01*
X14700000Y50400000D02*
X5300000Y50400000D01*
X24800000Y24400000D02*
X24850000Y2700000D01*
X52200000Y29000000D02*
X50000000Y28950000D01*
X46850000Y10000000D02*
X47000000Y10000000D01*
X47000000Y10000000D02*
X47000000Y7850000D01*
X45150000Y10000000D02*
X45000000Y10000000D01*
X45000000Y10000000D02*
X45000000Y7850000D01*
X39900000Y10000000D02*
X45000000Y10000000D01*
X39900000Y10000000D02*
X39980000Y9900000D01*
X52020000Y9900000D02*
X52020000Y10000000D01*
X47000000Y10000000D02*
X47000000Y10000000D01*
X47000000Y10000000D02*
X52020000Y10000000D01*
D14*
X46000000Y37100000D02*
X46000000Y35850000D01*
X46000000Y35850000D02*
X46000000Y35800000D01*
X46000000Y35800000D02*
X47400000Y35800000D01*
D33*
X30730000Y78270000D02*
X25870000Y78270000D01*
X25870000Y78270000D02*
X24900000Y77300000D01*
X24900000Y77300000D02*
X24500000Y76900000D01*
X24500000Y76900000D02*
X24500000Y67100000D01*
X24500000Y67100000D02*
X23500000Y66100000D01*
D14*
X64300000Y46000000D02*
X70150000Y46000000D01*
G04 --- BOARD END --- *
%TF.MD5,4b0abb86c3c3b0e12916c6eb035b388f*%
M02*
