M48
;DRILL FILE
;Generated by LibrePCB 0.1.0
;Creation Date: 2017-11-17T17:15:03
FMAT,2
METRIC,TZ
T1C0.3
T2C0.8128
T3C0.92
T4C1.02
T5C1.5
T6C2.3
T7C4.0
%
G90
G05
M71
T1
X65.1Y46.0
X64.3Y46.0
X24.5Y67.1
X24.0Y66.6
X23.5Y66.1
X46.0Y37.1
X47.4Y35.8
X52.1Y29.0
X51.3Y29.0
X57.2Y14.6
X56.6Y15.2
X56.0Y15.8
X9.8Y14.5
X10.4Y15.1
X11.0Y15.7
X9.1Y65.7
X70.9Y11.7
X70.9Y12.5
X70.9Y13.3
X69.5Y66.5
X69.5Y65.7
X69.5Y64.9
X9.1Y67.3
X9.1Y66.5
X14.6Y50.4
X13.7Y50.4
X12.8Y50.4
X24.8Y24.3
X24.8Y22.5
X24.8Y23.4
X62.6Y24.9
X63.8Y24.9
X65.0Y24.9
X3.1Y58.0
X5.1Y63.0
X8.2Y56.9
X3.7Y52.9
X2.8Y53.8
X1.9Y52.9
X16.6Y69.3
X13.7Y32.1
X12.9Y32.1
X21.8Y2.7
X23.1Y4.0
X45.6Y74.0
X47.4Y68.2
X32.9Y56.8
X26.8Y69.6
X26.8Y64.0
X36.8Y11.7
X19.3Y20.5
X35.7Y67.1
X37.4Y69.3
X53.8Y15.7
X55.1Y14.5
X43.8Y6.1
X48.2Y6.1
X47.0Y5.0
X45.0Y5.0
X46.0Y6.1
X54.9Y11.5
X55.1Y12.9
X54.5Y8.4
X55.7Y10.0
X26.4Y55.7
X19.7Y55.0
X16.0Y55.0
X16.4Y39.3
X27.9Y66.3
X17.7Y39.1
X28.9Y65.3
X19.4Y39.0
X78.5Y23.1
X77.3Y21.8
X76.0Y23.1
X43.9Y40.8
X34.2Y52.1
X34.2Y46.7
X29.0Y46.7
X31.8Y41.7
X32.2Y52.0
X24.1Y41.5
X17.0Y20.7
X17.0Y15.6
X51.8Y16.0
X38.1Y14.7
X38.1Y38.0
X30.7Y51.9
X47.6Y69.7
X30.9Y56.8
X27.7Y61.8
X27.7Y57.0
X70.4Y17.9
X48.7Y16.9
X49.8Y17.9
X49.8Y19.5
X20.3Y19.5
X20.3Y17.9
X21.0Y16.9
X26.9Y53.9
X30.1Y63.9
X27.5Y51.9
X19.7Y52.9
X18.9Y51.9
X18.9Y53.9
X6.0Y65.2
X5.0Y67.5
X4.0Y65.9
X5.9Y16.9
X5.0Y12.8
X3.5Y12.7
X67.7Y48.5
X68.7Y51.5
X66.7Y54.0
X76.4Y17.1
X76.0Y12.2
X74.0Y18.0
X76.0Y66.0
X76.0Y67.8
X74.0Y65.3
X52.1Y43.2
X40.7Y49.6
X38.1Y39.5
X32.9Y48.7
X21.0Y40.2
X21.0Y48.7
X32.7Y59.1
X24.5Y60.1
X25.6Y60.9
X30.3Y57.9
X22.0Y55.9
X21.5Y58.9
X23.5Y55.6
X42.3Y50.3
X44.4Y56.6
X52.1Y41.5
X49.4Y41.5
X36.1Y42.8
X40.7Y42.8
X45.1Y47.5
X47.3Y65.3
X47.3Y62.9
X45.1Y65.0
X46.2Y51.2
T2
X16.73Y77.0
X19.27Y77.0
X63.27Y3.0
X60.73Y3.0
X63.27Y77.0
X60.73Y77.0
X16.73Y3.0
X19.27Y3.0
T3
X47.25Y12.61
X44.75Y14.61
X47.25Y14.61
X44.75Y12.61
T4
X2.73Y45.27
X2.73Y40.19
X5.27Y40.19
X5.27Y47.81
X2.73Y47.81
X2.73Y42.73
X5.27Y45.27
X5.27Y42.73
X30.73Y78.27
X35.81Y78.27
X35.81Y75.73
X28.19Y75.73
X28.19Y78.27
X33.27Y78.27
X30.73Y75.73
X33.27Y75.73
X30.73Y2.73
X35.81Y2.73
X35.81Y5.27
X28.19Y5.27
X28.19Y2.73
X33.27Y2.73
X30.73Y5.27
X33.27Y5.27
X5.27Y21.65
X5.27Y31.81
X5.27Y34.35
X5.27Y26.73
X5.27Y24.19
X5.27Y29.27
X77.27Y30.73
X77.27Y35.81
X74.73Y35.81
X74.73Y28.19
X77.27Y28.19
X77.27Y33.27
X74.73Y30.73
X74.73Y33.27
X74.73Y48.73
X74.73Y46.19
X74.73Y53.81
X74.73Y51.27
T5
X55.0Y2.0
X58.0Y2.0
T6
X52.02Y9.9
X39.98Y9.9
T7
X11.0Y75.0
X69.0Y5.0
X11.0Y5.0
X69.0Y75.0
T0
M30
