G04 --- HEADER BEGIN --- *
%TF.GenerationSoftware,LibrePCB,LibrePCB,0.1.0*%
%TF.CreationDate,2017-11-17T17:15:03*%
%TF.ProjectId,Dancepad - Dancepad,5234ce1f-a5e1-4fe4-82c5-c527dd5c2ef1,v1*%
%TF.Part,Single*%
%FSLAX66Y66*%
%MOMM*%
G01*
G74*
G04 --- HEADER END --- *
G04 --- APERTURE LIST BEGIN --- *
%ADD10C,0.25*%
%ADD11P,7.2X8X22.5*%
%ADD12C,1.8256*%
%ADD13P,2.2X8X112.5*%
%ADD14P,2.74X8X22.5*%
%ADD15P,2.2X8X292.5*%
%ADD16P,2.2X8X22.5*%
%ADD17P,2.2X8X202.5*%
%ADD18P,2.2X8X-67.5*%
%ADD19C,4.0*%
%ADD20C,1.7*%
G04 --- APERTURE LIST END --- *
G04 --- BOARD BEGIN --- *
D10*
X39980000Y14900000D02*
X52020000Y14900000D01*
X52020000Y-400000D01*
X39980000Y-400000D01*
X39980000Y14900000D01*
%LPC*%
D11*
X69000000Y75000000D03*
X11000000Y5000000D03*
D12*
X19270000Y3000000D03*
X16730000Y3000000D03*
D13*
X74730000Y51270000D03*
X74730000Y53810000D03*
X74730000Y46190000D03*
X74730000Y48730000D03*
X74730000Y33270000D03*
X74730000Y30730000D03*
X77270000Y33270000D03*
X77270000Y28190000D03*
X74730000Y28190000D03*
X74730000Y35810000D03*
X77270000Y35810000D03*
X77270000Y30730000D03*
D14*
X58000000Y2000000D03*
D15*
X5270000Y29270000D03*
X5270000Y24190000D03*
X5270000Y26730000D03*
X5270000Y34350000D03*
X5270000Y31810000D03*
X5270000Y21650000D03*
D12*
X60730000Y77000000D03*
X63270000Y77000000D03*
X60730000Y3000000D03*
X63270000Y3000000D03*
X19270000Y77000000D03*
X16730000Y77000000D03*
D14*
X55000000Y2000000D03*
D16*
X33270000Y5270000D03*
X30730000Y5270000D03*
X33270000Y2730000D03*
X28190000Y2730000D03*
X28190000Y5270000D03*
X35810000Y5270000D03*
X35810000Y2730000D03*
X30730000Y2730000D03*
D11*
X69000000Y5000000D03*
D17*
X33270000Y75730000D03*
X30730000Y75730000D03*
X33270000Y78270000D03*
X28190000Y78270000D03*
X28190000Y75730000D03*
X35810000Y75730000D03*
X35810000Y78270000D03*
X30730000Y78270000D03*
D18*
X5270000Y42730000D03*
X5270000Y45270000D03*
X2730000Y42730000D03*
X2730000Y47810000D03*
X5270000Y47810000D03*
X5270000Y40190000D03*
X2730000Y40190000D03*
X2730000Y45270000D03*
D11*
X11000000Y75000000D03*
D19*
X39980000Y9900000D03*
D20*
X44750000Y12610000D03*
X47250000Y14610000D03*
D19*
X52020000Y9900000D03*
D20*
X44750000Y14610000D03*
X47250000Y12610000D03*
G04 --- BOARD END --- *
%TF.MD5,42520b3004d75beb4d82edde8f22c78b*%
M02*
